<svg width="94" height="94" viewBox="0 0 94 94" fill="none" xmlns="http://www.w3.org/2000/svg">
<path d="M26.1621 64.7627H73.9516V58.75H23.8856C22.2241 58.75 20.7828 59.6588 20.0209 61.0082V66.5344C21.8018 65.4236 23.9039 64.7627 26.1621 64.7627Z" fill="#FDB242"/>
<path d="M34.1025 11.5665H34.1851C35.709 11.5665 36.9482 10.3272 36.9482 8.80337C36.9482 7.27954 35.709 6.04028 34.1851 6.04028H34.1025C32.5787 6.04028 31.3394 7.27954 31.3394 8.80337C31.3394 10.3272 32.5787 11.5665 34.1025 11.5665ZM27.8879 24.4639C27.8879 25.9877 29.1271 27.227 30.651 27.227H62.9359C64.4598 27.227 65.699 25.9877 65.699 24.4639C65.699 22.9401 64.4598 21.7008 62.9359 21.7008H30.651C29.1271 21.71 27.8879 22.9401 27.8879 24.4639ZM62.9359 35.1766H30.651C29.1271 35.1766 27.8879 36.4159 27.8879 37.9397C27.8879 39.4635 29.1271 40.7028 30.651 40.7028H62.9359C64.4598 40.7028 65.699 39.4635 65.699 37.9397C65.699 36.4159 64.4598 35.1766 62.9359 35.1766ZM62.9359 48.12H30.651C29.1271 48.12 27.8879 49.3592 27.8879 50.8831C27.8879 52.4069 29.1271 53.6461 30.651 53.6461H62.9359C64.4598 53.6461 65.699 52.4069 65.699 50.8831C65.699 49.3592 64.4598 48.12 62.9359 48.12Z" fill="#414141"/>
<path d="M26.1621 70.2889H76.7146C78.2384 70.2889 79.4777 69.0497 79.4777 67.5258V14.6784C79.4777 9.91411 75.6039 6.04028 70.8396 6.04028H42.2173C40.6935 6.04028 39.4543 7.27954 39.4543 8.80337C39.4543 10.3272 40.6935 11.5665 42.2173 11.5665H70.8304C72.547 11.5665 73.9423 12.9618 73.9423 14.6784V64.7627H26.1621C23.9039 64.7627 21.8109 65.4145 20.0209 66.5252V14.6784C20.0209 12.9618 21.4162 11.5665 23.1328 11.5665H26.4283C27.9521 11.5665 29.1914 10.3272 29.1914 8.80337C29.1914 7.27954 27.9521 6.04028 26.4283 6.04028H23.1328C18.3685 6.04028 14.4947 9.91411 14.4947 14.6784V76.4301C14.4947 82.8651 19.7271 88.0975 26.1621 88.0975H76.7146C78.2384 88.0975 79.4777 86.8583 79.4777 85.3344C79.4777 83.8106 78.2384 82.5713 76.7146 82.5713H26.1621C22.7748 82.5713 20.0209 79.8174 20.0209 76.4301C20.0209 73.0428 22.7748 70.2889 26.1621 70.2889Z" fill="#414141"/>
</svg>
