<svg width="70" height="68" viewBox="0 0 70 68" fill="none" xmlns="http://www.w3.org/2000/svg">
<g clip-path="url(#clip0)">
<circle cx="39.5" cy="20.5" r="13.5" fill="#FDB242"/>
<path d="M2.14114 67.9689C1.57301 67.9674 1.02871 67.7422 0.627786 67.3427C0.226863 66.9433 0.00209679 66.4023 0.00285531 65.8386C0.00914676 62.5144 0.7019 59.2267 2.03836 56.1785C3.70845 52.9207 8.66446 51.1502 15.5189 48.6997L17.0063 48.1672C17.0314 48.1092 17.0523 48.0495 17.0691 47.9887C17.3974 46.9264 17.1805 45.4193 17.0349 44.9972C15.55 43.4059 14.4168 41.5242 13.7079 39.4728C12.999 37.4214 12.73 35.2456 12.9182 33.085C12.7503 30.2753 13.6523 27.5055 15.4452 25.3244C17.2382 23.1433 19.7914 21.7101 22.599 21.3088C23.161 21.2335 23.7302 21.3809 24.1834 21.7193C24.6366 22.0576 24.9371 22.5595 25.0199 23.1162C25.0606 23.3928 25.0456 23.6746 24.9759 23.9454C24.9062 24.2162 24.7831 24.4707 24.6138 24.694C24.4444 24.9174 24.2322 25.1052 23.9893 25.2467C23.7463 25.3882 23.4776 25.4806 23.1985 25.5184C21.4358 25.768 19.835 26.6741 18.7214 28.0528C17.6078 29.4314 17.065 31.1791 17.2033 32.9405C17.2138 33.0641 17.2128 33.1883 17.2005 33.3116C17.0418 34.9276 17.2341 36.5585 17.7645 38.0944C18.2949 39.6303 19.151 41.0356 20.2751 42.2153C21.634 43.6686 21.7282 46.9944 21.2772 48.8386C20.7633 50.9377 19.5957 51.7592 18.705 52.0793L16.9778 52.6997C11.9532 54.4958 6.75742 56.3513 5.91239 57.9915C4.83974 60.4756 4.28708 63.1502 4.28798 65.8527C4.28497 66.4148 4.05824 66.9529 3.65719 67.3498C3.25613 67.7467 2.71326 67.9702 2.14685 67.9717H2.14114V67.9689ZM45.8288 67.9689C45.2656 67.9667 44.7257 67.7453 44.3253 67.3522C43.9249 66.9591 43.6959 66.4257 43.6877 65.8669C43.6598 63.1133 43.0734 60.3935 41.9634 57.8697C41.1783 56.3485 35.991 54.4958 30.9722 52.7026L29.2279 52.0793C28.3372 51.7564 27.1696 50.932 26.6586 48.8301C26.2103 46.9859 26.2988 43.6658 27.6406 42.2323C29.1594 40.7111 30.1186 38.8329 30.4355 36.7762C30.4763 36.5001 30.5718 36.2348 30.7166 35.9955C30.8613 35.7563 31.0525 35.5479 31.279 35.3824C31.5054 35.217 31.7627 35.0978 32.036 35.0316C32.3092 34.9655 32.5929 34.9538 32.8707 34.9972C33.1495 35.0374 33.4174 35.1326 33.6587 35.2771C33.8999 35.4215 34.1095 35.6125 34.2753 35.8386C34.615 36.2946 34.7549 36.8584 34.6664 37.4193C34.2318 40.2889 32.9031 42.9515 30.8666 45.034C30.7267 45.4986 30.544 46.9575 30.8637 47.9915C30.8818 48.0533 30.9038 48.1138 30.9294 48.1728L32.4196 48.7054C39.2713 51.1558 44.2216 52.9235 45.8346 56.0595C47.2045 59.1377 47.9309 62.4596 47.97 65.8244C47.973 66.1034 47.9206 66.3803 47.8158 66.6392C47.7109 66.8981 47.5558 67.134 47.359 67.3334C47.1623 67.5328 46.928 67.6918 46.6693 67.8013C46.4107 67.9108 46.1329 67.9687 45.8517 67.9717H45.8288V67.9689ZM55.2955 67.9689C54.7277 67.9688 54.1832 67.7449 53.7818 67.3464C53.3803 66.948 53.1548 66.4076 53.1548 65.8442C53.1548 65.2808 53.3803 64.7404 53.7818 64.342C54.1832 63.9436 54.7277 63.7197 55.2955 63.7196H59.9147V63.5298C59.9147 57.4759 56.466 56.2522 51.2502 54.3995L49.877 53.9065C48.9949 53.5808 47.8387 52.7564 47.3248 50.6601C46.8652 48.7847 46.9451 45.408 48.2897 43.9434C49.895 42.3051 50.9079 40.1852 51.1703 37.915C51.2002 37.637 51.2851 37.3676 51.4201 37.1222C51.5552 36.8769 51.7377 36.6604 51.9572 36.4851C52.1768 36.3099 52.429 36.1793 52.6995 36.101C52.9699 36.0227 53.2533 35.9981 53.5334 36.0287C53.8135 36.0592 54.0847 36.1444 54.3316 36.2791C54.5784 36.4139 54.796 36.5957 54.9719 36.8141C55.1478 37.0326 55.2785 37.2833 55.3566 37.5519C55.4347 37.8205 55.4585 38.1018 55.4268 38.3796C55.0733 41.5008 53.7112 44.4246 51.5443 46.7139C51.4015 47.1898 51.2045 48.7507 51.53 49.8102C51.5557 49.8952 51.5814 49.9575 51.6013 50.0057L52.6948 50.3966C58.0876 52.3116 64.1998 54.4788 64.1998 63.5269V65.8414C64.1998 66.4049 63.9742 66.9453 63.5727 67.3437C63.1711 67.7422 62.6265 67.966 62.0587 67.966H55.2955V67.9689Z" fill="#414141"/>
<path d="M66.378 40.388C66.0968 40.3889 65.8182 40.3342 65.5584 40.2272C65.2987 40.1202 65.0629 39.963 64.865 39.7648L55.464 30.4362C52.464 32.7534 48.7713 34.0124 44.9695 34.0141C35.5257 34.0141 27.8405 26.388 27.8405 17.0169C27.8405 7.64584 35.5257 0.0197754 44.9695 0.0197754C54.4134 0.0197754 62.0986 7.64584 62.0986 17.0169C62.0973 20.7903 60.8286 24.4556 58.493 27.4334L67.894 36.762C68.244 36.7644 68.588 36.8521 68.8958 37.0175C69.2036 37.1829 69.4657 37.4208 69.6591 37.7103C69.8524 37.9998 69.9711 38.332 70.0047 38.6777C70.0383 39.0234 69.9857 39.3721 69.8515 39.6929C69.7174 40.0137 69.5059 40.2968 69.2356 40.5175C68.9652 40.7381 68.6444 40.8894 68.3013 40.9581C67.9582 41.0267 67.6033 41.0107 67.268 40.9113C66.9326 40.8119 66.627 40.6322 66.378 40.388ZM44.9667 4.26907C37.8838 4.26907 32.1199 9.98861 32.1199 17.0169C32.1199 24.0453 37.8838 29.7648 44.9667 29.7648C52.0496 29.7648 57.8135 24.0453 57.8135 17.0169C57.8135 9.98861 52.0524 4.26907 44.9667 4.26907Z" fill="#414141"/>
</g>
<defs>
<clipPath id="clip0">
<rect width="70" height="68" fill="white"/>
</clipPath>
</defs>
</svg>
