<?xml version="1.0" standalone="no"?><!DOCTYPE svg PUBLIC "-//W3C//DTD SVG 1.1//EN" "http://www.w3.org/Graphics/SVG/1.1/DTD/svg11.dtd"><svg class="icon" width="200px" height="200.00px" viewBox="0 0 1024 1024" version="1.1" xmlns="http://www.w3.org/2000/svg"><path d="M170.666667 68.266667h204.8a102.4 102.4 0 0 1 102.4 102.4v204.8a102.4 102.4 0 0 1-102.4 102.4H170.666667a102.4 102.4 0 0 1-102.4-102.4V170.666667a102.4 102.4 0 0 1 102.4-102.4z m0 68.266666a34.133333 34.133333 0 0 0-34.133334 34.133334v204.8a34.133333 34.133333 0 0 0 34.133334 34.133333h204.8a34.133333 34.133333 0 0 0 34.133333-34.133333V170.666667a34.133333 34.133333 0 0 0-34.133333-34.133334H170.666667z m0 409.6h204.8a102.4 102.4 0 0 1 102.4 102.4v204.8a102.4 102.4 0 0 1-102.4 102.4H170.666667a102.4 102.4 0 0 1-102.4-102.4v-204.8a102.4 102.4 0 0 1 102.4-102.4z m0 68.266667a34.133333 34.133333 0 0 0-34.133334 34.133333v204.8a34.133333 34.133333 0 0 0 34.133334 34.133334h204.8a34.133333 34.133333 0 0 0 34.133333-34.133334v-204.8a34.133333 34.133333 0 0 0-34.133333-34.133333H170.666667zM648.533333 68.266667h204.8a102.4 102.4 0 0 1 102.4 102.4v204.8a102.4 102.4 0 0 1-102.4 102.4h-204.8a102.4 102.4 0 0 1-102.4-102.4V170.666667a102.4 102.4 0 0 1 102.4-102.4z m0 68.266666a34.133333 34.133333 0 0 0-34.133333 34.133334v204.8a34.133333 34.133333 0 0 0 34.133333 34.133333h204.8a34.133333 34.133333 0 0 0 34.133334-34.133333V170.666667a34.133333 34.133333 0 0 0-34.133334-34.133334h-204.8z" fill="#4A4A4A" /><path d="M648.533333 546.133333h204.8a102.4 102.4 0 0 1 102.4 102.4v204.8a102.4 102.4 0 0 1-102.4 102.4h-204.8a102.4 102.4 0 0 1-102.4-102.4v-204.8a102.4 102.4 0 0 1 102.4-102.4z m0 68.266667a34.133333 34.133333 0 0 0-34.133333 34.133333v204.8a34.133333 34.133333 0 0 0 34.133333 34.133334h204.8a34.133333 34.133333 0 0 0 34.133334-34.133334v-204.8a34.133333 34.133333 0 0 0-34.133334-34.133333h-204.8z" fill="#FF7214" /></svg>