<?xml version="1.0" standalone="no"?><!DOCTYPE svg PUBLIC "-//W3C//DTD SVG 1.1//EN" "http://www.w3.org/Graphics/SVG/1.1/DTD/svg11.dtd"><svg class="icon" width="200px" height="200.00px" viewBox="0 0 1024 1024" version="1.1" xmlns="http://www.w3.org/2000/svg"><path d="M727.2 413.4h75.1c24.9 0 45 20.2 45 45v255.2c0 24.9-20.2 45-45 45h-75.1c-24.9 0-45-20.2-45-45V458.4c0-24.9 20.1-45 45-45z" fill="#FFEE91" /><path d="M779.8 413.4v255.2c0 12.5-10 22.5-22.5 22.5h-75.1v22.5c0 25 20.1 45 45 45h75.1c25 0 45-20.1 45-45V458.4c0-25-20.1-45-45-45h-22.5z" fill="#F9D151" /><path d="M216.7 173.1h75.1c24.9 0 45 20.2 45 45v495.5c0 24.9-20.2 45-45 45h-75.1c-24.9 0-45-20.2-45-45V218.2c0-24.9 20.2-45.1 45-45.1z" fill="#B0FA90" /><path d="M472 293.2h75c24.9 0 45 20.2 45 45v375.4c0 24.9-20.2 45-45 45h-75c-24.9 0-45-20.2-45-45V338.3c-0.1-24.9 20.1-45.1 45-45.1z" fill="#91DDFF" /><path d="M96.9 826.2c-12.4-0.2-22.7 9.8-22.8 22.2-0.2 12.4 9.8 22.7 22.2 22.8H922c12.4 0.2 22.7-9.8 22.8-22.2 0.2-12.4-9.8-22.7-22.2-22.8h-0.6c-265 0.1-560 0-825.1 0z" fill="#444852" /><path d="M269.3 173.1v495.5c0 12.5-10 22.5-22.5 22.5h-75.1v22.5c0 25 20.1 45 45 45h75.1c25 0 45-20.1 45-45V218.2c0-25-20.1-45-45-45h-22.5z" fill="#95E55F" /><path d="M216.7 150.6c-37 0-67.6 30.5-67.6 67.6v495.5c0 37 30.5 67.6 67.6 67.6h75.1c37 0 67.6-30.5 67.6-67.6V218.2c0-37-30.5-67.6-67.6-67.6h-75.1z m0 45.1h75.1c12.9 0 22.5 9.7 22.5 22.5v495.5c0 12.9-9.7 22.5-22.5 22.5h-75.1c-12.9 0-22.5-9.7-22.5-22.5V218.2c0-12.9 9.7-22.5 22.5-22.5z" fill="#444852" /><path d="M524.5 293.2v375.4c0 12.5-10 22.5-22.5 22.5h-75.1v22.5c0 25 20.1 45 45 45H547c25 0 45-20.1 45-45V338.3c0-25-20.1-45-45-45h-22.5z" fill="#52C7FC" /><path d="M472 270.7c-37 0-67.6 30.5-67.6 67.6v375.4c0 37 30.5 67.6 67.6 67.6h75c37 0 67.6-30.5 67.6-67.6V338.3c0-37-30.5-67.6-67.6-67.6h-75z m0 45.1h75c12.9 0 22.5 9.7 22.5 22.5v375.4c0 12.9-9.7 22.5-22.5 22.5h-75c-12.9 0-22.5-9.7-22.5-22.5V338.3c0-12.9 9.6-22.5 22.5-22.5zM727.2 390.8c-37 0-67.6 30.5-67.6 67.6v255.2c0 37 30.5 67.6 67.6 67.6h75.1c12.4 0.2 22.7-9.8 22.8-22.2 0.2-12.4-9.8-22.7-22.2-22.8H727.2c-12.9 0-22.5-9.7-22.5-22.5V458.4c0-12.9 9.7-22.5 22.5-22.5h75.1c12.4 0.2 22.7-9.8 22.8-22.2s-9.8-22.7-22.2-22.8H727.2z" fill="#444852" /><path d="M786.6 461.3c-16.2 0.6-25.1 19.2-15.2 32.1l44.4 61.2h-28.1c-27.1-0.4-27.1 40.4 0 40h39.7v26.7h-39.7c-27.1-0.4-27.1 40.4 0 40h39.7V681c-0.4 27.1 40.4 27.1 40 0v-19.7h39.7c27.1 0.4 27.1-40.4 0-40h-39.7v-26.7h39.7c27.1 0.4 27.1-40.4 0-40H879l44.4-61.2c9.8-13.1 0.6-31.8-15.8-32-6.6-0.1-12.8 3.1-16.6 8.5l-43.7 60.2-43.7-60.2c-3.7-5.6-10.2-8.8-17-8.6z" fill="#444852" /></svg>