<?xml version="1.0" standalone="no"?><!DOCTYPE svg PUBLIC "-//W3C//DTD SVG 1.1//EN" "http://www.w3.org/Graphics/SVG/1.1/DTD/svg11.dtd"><svg class="icon" width="200px" height="200.00px" viewBox="0 0 1024 1024" version="1.1" xmlns="http://www.w3.org/2000/svg"><path d="M819.268267 352.733867a68.266667 68.266667 0 0 1 68.232533 68.266666V819.2a68.266667 68.266667 0 0 1-68.266667 68.266667H204.765867A68.266667 68.266667 0 0 1 136.533333 819.2V204.8a68.266667 68.266667 0 0 1 68.266667-68.266667h477.661867a68.266667 68.266667 0 0 1 68.266666 68.266667v579.447467a34.133333 34.133333 0 1 0 68.232534 0V352.733867h0.341333zM818.926933 204.8a136.533333 136.533333 0 0 0-136.4992-136.533333H204.731733A136.533333 136.533333 0 0 0 68.266667 204.8v614.4a136.533333 136.533333 0 0 0 136.465066 136.533333h614.536534A136.533333 136.533333 0 0 0 955.733333 819.2V421.000533a136.533333 136.533333 0 0 0-136.465066-136.533333h-0.341334V204.8z" fill="#4A4A4A" /><path d="M273.066667 614.4m34.133333 0l273.066667 0q34.133333 0 34.133333 34.133333l0 0q0 34.133333-34.133333 34.133334l-273.066667 0q-34.133333 0-34.133333-34.133334l0 0q0-34.133333 34.133333-34.133333Z" fill="#FF7214" /><path d="M273.066667 477.866667m34.133333 0l273.066667 0q34.133333 0 34.133333 34.133333l0 0q0 34.133333-34.133333 34.133333l-273.066667 0q-34.133333 0-34.133333-34.133333l0 0q0-34.133333 34.133333-34.133333Z" fill="#FF7214" /><path d="M273.066667 341.333333m34.133333 0l273.066667 0q34.133333 0 34.133333 34.133334l0 0q0 34.133333-34.133333 34.133333l-273.066667 0q-34.133333 0-34.133333-34.133333l0 0q0-34.133333 34.133333-34.133334Z" fill="#FF7214" /></svg>