<?xml version="1.0" standalone="no"?><!DOCTYPE svg PUBLIC "-//W3C//DTD SVG 1.1//EN" "http://www.w3.org/Graphics/SVG/1.1/DTD/svg11.dtd"><svg class="icon" width="200px" height="200.00px" viewBox="0 0 1024 1024" version="1.1" xmlns="http://www.w3.org/2000/svg"><path d="M578.2 355.5m-233.2 0a233.2 233.2 0 1 0 466.4 0 233.2 233.2 0 1 0-466.4 0Z" fill="#FFEE91" /><path d="M712 164.6c28 39.4 43 86.4 43.1 134.6 0 128.8-104.4 233.2-233.2 233.2-47.9 0-94.6-14.8-133.8-42.4 43.6 61.8 114.5 98.5 190.1 98.7 128.8 0 233.2-104.4 233.2-233.2 0-76-37.1-147.2-99.4-190.9z" fill="#F9D151" /><path d="M87.7 572.6h112.6v337.7H87.7V572.6z" fill="#FFFFFF" /><path d="M200.3 604.7v237.6s140.6 69.1 160.8 67.9l289.5-17s178.4-85.6 282.1-125c18.7-7.1-2.2-63.5-20.9-61.8-86 7.8-282 59-282 59s1.5-68.5-31.9-73.7c-57.5-9-120.2-9-156.3-19.2-17.8-5-104.5-67.9-144.7-67.9h-96.6z" fill="#FFEE91" /><path d="M931.1 722.7C825.8 763.2 650.6 837 650.6 837l-289.5 17c-20.2 1.2-160.8-67.9-160.8-67.9v56.3s140.6 69.1 160.8 67.9l289.5-17s178.4-85.6 282.2-125c11.9-4.5 7.7-28.8-1.7-45.6z" fill="#F9D151" /><path d="M87.7 837.9v72.4h112.6v-72.4H87.7z" fill="#E5F0F1" /><path d="M577.9 226.8c-11.9 0.2-21.9 9-23.5 20.9-23.6 9.6-40.4 32.8-40.4 59.6 0 18.8 9.1 35.1 19.6 45.7s22.2 17.2 32.3 23.2c10.1 6 18.5 11.5 23 16s5.5 6.2 5.5 11.6c0 9.2-6.9 16.1-16.1 16.1s-16.1-6.9-16.1-16.1c0.2-13.3-10.5-24.3-23.8-24.5s-24.3 10.5-24.5 23.8v0.7c0 26.8 16.9 50 40.5 59.6 1.9 13.2 14.1 22.4 27.3 20.5 10.6-1.5 19-9.9 20.5-20.5 23.6-9.6 40.4-32.8 40.4-59.6 0-18.8-9.1-35.1-19.6-45.7s-22.2-17.2-32.3-23.2c-10.1-6-18.5-11.5-23-16s-5.5-6.2-5.5-11.6c0-9.2 6.9-16.1 16.1-16.1s16.1 6.9 16.1 16.1c-0.2 13.3 10.5 24.3 23.8 24.5 13.3 0.2 24.3-10.5 24.5-23.8v-0.7c0-26.8-16.9-50-40.5-59.6-1.7-12.1-12.2-21.1-24.3-20.9z" fill="#FFFFFF" /><path d="M578.2 98.2c-141.8 0-257.3 115.5-257.3 257.3 0 52.9 16.3 104.5 46.7 147.8 7.7 10.9 22.7 13.5 33.6 5.9 10.9-7.7 13.5-22.7 5.9-33.6-24.7-35.2-37.9-77.1-37.9-120.1 0-115.8 93.3-209.1 209.1-209.1s209.1 93.3 209.1 209.1-93.4 209-209.2 209c-43 0-84.9-13.2-120.1-37.9-10.7-8-25.8-5.7-33.8 5-8 10.7-5.7 25.8 5 33.8 0.4 0.3 0.7 0.5 1.1 0.8 43.3 30.4 94.9 46.7 147.8 46.7 141.8 0 257.3-115.5 257.3-257.3S720.1 98.2 578.2 98.2zM87.7 532.4c-13.3 0-24.1 10.8-24.1 24.1v353.8c0 13.3 10.8 24.1 24.1 24.1h112.6c13.3 0 24.1-10.8 24.1-24.1V628.9h72.4c7.5 0 40.8 13 68.9 28.9 41.8 23.5 54.7 34.4 69.3 38 43.2 12.2 104.8 11.2 159.6 19.8 5.7 7.8 7.9 16.2 8.8 25.8H451.8c-32.6-0.5-32.6 48.7 0 48.2h178c13.1 0 23.8-10.5 24.1-23.6-0.7-49.5-13.5-91.3-52.3-98.1-60.1-9.4-130.9-11.2-153.5-18.6-7.7-2.5-37-21.9-58.6-33.6-29.7-16.8-60-35.2-92.7-35.2h-96.5c-14.7 0-24.1 12.3-24.1 24.1V886h-64.3V580.6H136c32.6 0.5 32.6-48.7 0-48.2H87.7z" fill="#444852" /><path d="M909.7 682.5c-54.7 5-143.7 25-208.6 40.5-31.7 7.2-20.3 54.8 11.2 46.9C774.6 755 859.7 736.1 908 731c4.8 7.8 6 11.5 7.4 18.1C811 789.6 651.8 866 644.6 869.5l-284 16.6c-23.7-7.1-48.2-18.1-67.8-26.9-31.4-12.1-48 32.5-18.7 44.4 24 10.9 50.6 22.2 69 27.7 5.2 1.5 11.5 3.4 19.5 3.1l289.5-17c3.1-0.2 6.2-1 9-2.3 0 0 178.8-85.6 280.3-124.2 47.8-19.3 12.2-113.7-31.7-108.4z" fill="#444852" /></svg>