<svg width="38" height="27" viewBox="0 0 38 27" fill="none" xmlns="http://www.w3.org/2000/svg">
<path d="M37.2634 2.24678C37.2609 2.24678 37.2585 2.24678 37.2561 2.24678H34.7591V1.40061C34.7725 1.0657 34.5537 0.764711 34.2287 0.671159C32.4952 0.221269 30.7101 -0.00431424 28.918 6.24798e-05C25.9717 6.24798e-05 21.9574 0.65657 18.989 3.64733C16.0426 0.627392 11.9988 6.24798e-05 9.0599 6.24798e-05C7.2678 -0.00431424 5.48271 0.221269 3.74918 0.671159C3.42416 0.764711 3.2054 1.0657 3.21884 1.40061V2.23948H0.736577C0.329802 2.23948 0 2.56609 0 2.96893V26.2677C0 26.6705 0.329802 26.9971 0.736577 26.9971C0.863084 26.9967 0.987381 26.9641 1.0975 26.9023C1.17116 26.8658 8.53693 22.8757 18.8195 25.4434H18.93H18.9963C19.0551 25.4504 19.1144 25.4504 19.1731 25.4434C29.4852 22.8538 36.8509 26.8366 36.8951 26.9023C37.123 27.0326 37.4038 27.0326 37.6317 26.9023C37.8582 26.7728 37.9984 26.534 38 26.2749V2.97623C38 2.57339 37.6703 2.24678 37.2634 2.24678ZM1.47315 25.1078V3.70568H3.23357V22.0004C3.22897 22.4032 3.555 22.7335 3.96177 22.738C4.00155 22.7385 4.04132 22.7357 4.08064 22.7298C5.60443 22.4994 7.14286 22.3775 8.68424 22.3651C10.8194 22.3284 12.9456 22.6465 14.9746 23.3061C10.3926 22.7573 5.74502 23.3776 1.47315 25.1078ZM8.68424 20.9135C7.3445 20.9165 6.00632 21.0017 4.67726 21.1688V1.97688C6.11138 1.66048 7.57588 1.499 9.04516 1.49544C11.8 1.49544 15.6007 2.12277 18.2376 5.06976L18.2597 23.2404C16.7277 22.2484 13.7372 20.9135 8.68424 20.9135ZM19.7329 5.06976C22.3698 2.15195 26.1706 1.49544 28.9254 1.49544C30.3946 1.49973 31.8591 1.66112 33.2933 1.97688V21.1688C31.9717 21.0002 30.6409 20.9125 29.3084 20.9062C24.2849 20.9062 21.2871 22.2411 19.7329 23.2331V5.06976ZM36.5195 25.1078C32.2385 23.3728 27.5802 22.7525 22.9886 23.3061C25.0271 22.6441 27.1635 22.326 29.3084 22.3651C30.8594 22.3737 32.4078 22.4931 33.9415 22.7225C34.3436 22.783 34.7192 22.5091 34.7802 22.1108C34.7862 22.0718 34.789 22.0325 34.7885 21.9931V3.70568H36.5489L36.5195 25.1078Z" fill="#FF5C00"/>
</svg>
