<?xml version="1.0" standalone="no"?><!DOCTYPE svg PUBLIC "-//W3C//DTD SVG 1.1//EN" "http://www.w3.org/Graphics/SVG/1.1/DTD/svg11.dtd"><svg class="icon" width="200px" height="200.00px" viewBox="0 0 1024 1024" version="1.1" xmlns="http://www.w3.org/2000/svg"><path d="M542.72 409.6a193.536 193.536 0 0 0-84.855467 21.162667A170.666667 170.666667 0 0 0 204.8 580.266667v204.8c0 14.574933 9.216 27.4432 22.7328 32.221866l45.533867 16.042667V887.466667a34.133333 34.133333 0 0 0 34.133333 34.133333h136.533333a34.133333 34.133333 0 0 0 34.133334-34.133333v-30.3104l63.8976 59.972266A102.434133 102.434133 0 0 1 443.733333 989.866667H307.2a102.4 102.4 0 0 1-102.4-102.4v-5.802667A102.434133 102.434133 0 0 1 136.533333 785.066667v-204.8a238.933333 238.933333 0 0 1 128-211.626667 170.666667 170.666667 0 1 1 221.934934 0c20.718933 10.8544 39.662933 24.712533 56.251733 40.96zM375.466667 341.333333a102.4 102.4 0 1 0 0-204.8 102.4 102.4 0 0 0 0 204.8z" fill="#4A4A4A" /><path d="M899.857067 751.9232l15.9744-17.578667C941.636267 705.877333 955.733333 668.330667 955.733333 628.1216c0-40.209067-14.097067-77.755733-39.936-106.1888-25.8048-28.501333-59.938133-44.066133-96.494933-44.066133-36.590933 0-70.690133 15.5648-96.529067 44.032L682.666667 566.1696l-40.106667-44.202667C616.721067 493.431467 582.656 477.866667 546.030933 477.866667c-36.522667 0-70.656 15.5648-96.494933 44.032-25.838933 28.4672-39.936 66.013867-39.936 106.222933 0 40.209067 14.097067 77.755733 39.936 106.222933l15.940267 17.578667L682.666667 955.733333l217.1904-203.810133zM682.666667 862.1056l-168.482134-158.1056-14.097066-15.530667c-14.267733-15.735467-22.2208-36.864-22.2208-60.347733 0-23.4496 7.953067-44.578133 22.2208-60.3136 13.073067-14.4384 28.945067-21.674667 45.943466-21.674667 17.032533 0 32.904533 7.236267 45.9776 21.674667L682.666667 667.716267l90.658133-99.908267c13.073067-14.4384 28.945067-21.674667 45.9776-21.674667 16.9984 0 32.8704 7.236267 45.9776 21.674667 14.2336 15.701333 22.186667 36.864 22.186667 60.3136 0 23.483733-7.953067 44.612267-22.186667 60.347733l-14.1312 15.530667L682.666667 862.1056z" fill="#FF7214" /></svg>