<?xml version="1.0" standalone="no"?><!DOCTYPE svg PUBLIC "-//W3C//DTD SVG 1.1//EN" "http://www.w3.org/Graphics/SVG/1.1/DTD/svg11.dtd"><svg class="icon" width="200px" height="200.00px" viewBox="0 0 1024 1024" version="1.1" xmlns="http://www.w3.org/2000/svg"><path d="M656.9 418.7H367.2L299 640.3h426.1l-68.2-221.6z" fill="#F9D151" /><path d="M498.2 418.7l127.9 221.6H508L380.1 418.7h118.1zM344.3 493.1l85 147.2H311.2l-8-13.8 41.1-133.4z" fill="#FFEE91" /><path d="M870 640.3H580.2L512 861.9h426.1L870 640.3z" fill="#F9D151" /><path d="M711.2 640.3l127.9 221.6h-118L593.2 640.3h118zM557.4 714.7l85 147.2H524.3l-8-13.8 41.1-133.4z" fill="#FFEE91" /><path d="M443.9 640.3H154.1L85.9 861.9H512l-68.1-221.6z" fill="#F9D151" /><path d="M285.1 640.3L413 861.9H295L167 640.3h118.1zM131.2 714.7l85 147.2H98.1l-8-13.8 41.1-133.4z" fill="#FFEE91" /><path d="M154.1 614.8c-11.2 0-21.1 7.3-24.4 18L61.5 854.4c-4.2 13.5 3.4 27.8 16.9 32 2.4 0.7 5 1.1 7.5 1.1h247.2c14.1 0.2 25.7-11.1 25.9-25.2 0.2-14.1-11.1-25.7-25.2-25.9H120.5L173 665.9h252l52.4 170.5h-59.1c-14.1-0.2-25.7 11.1-25.9 25.2-0.2 14.1 11.1 25.7 25.2 25.9h94.5c14.1 0 25.6-11.5 25.6-25.6 0-2.5-0.4-5.1-1.1-7.5l-68.2-221.6c-3.3-10.7-13.2-18-24.4-18H154.1zM580.2 614.8c-11.2 0-21.1 7.3-24.4 18l-24.4 79.3c-4.3 13.4 3 27.9 16.5 32.2 13.4 4.3 27.9-3 32.2-16.5 0.1-0.2 0.1-0.4 0.2-0.7l18.8-61.3h252l52.4 170.5H588.8c-14.1-0.2-25.7 11.1-25.9 25.2-0.2 14.1 11.1 25.7 25.2 25.9H938.2c14.1 0 25.6-11.5 25.6-25.6 0-2.5-0.4-5.1-1.1-7.5l-68.2-221.6c-3.3-10.7-13.2-18-24.4-18H580.2zM367.2 393.2c-11.2 0-21.1 7.3-24.4 18l-41.9 136.4c-4.3 13.4 3 27.9 16.5 32.2s27.9-3 32.2-16.5c0.1-0.2 0.1-0.4 0.2-0.7L386 444.3h252l36.4 118.3c4 13.6 18.2 21.3 31.7 17.3 13.6-4 21.3-18.2 17.3-31.7-0.1-0.2-0.1-0.4-0.2-0.7l-41.9-136.4c-3.3-10.7-13.2-18-24.4-18H367.2zM511.7 137.1c-14.1 0.2-25.4 11.8-25.2 25.9v85.2c-0.2 14.1 11.1 25.7 25.2 25.9 14.1 0.2 25.7-11.1 25.9-25.2V163c0.2-14.1-11.1-25.7-25.2-25.9h-0.7zM753.1 236.8c-10.1-9.8-26.3-9.6-36.1 0.5l-60.3 60.3c-10.1 9.8-10.4 26-0.5 36.2 9.8 10.1 26 10.4 36.2 0.5l0.5-0.5 60.3-60.3c10.1-9.8 10.4-26 0.5-36.2-0.2-0.2-0.4-0.3-0.6-0.5zM271 236.8c10.1-9.8 26.3-9.6 36.1 0.5l60.3 60.3c10.1 9.8 10.4 26 0.5 36.2-9.8 10.1-26 10.4-36.2 0.5l-0.5-0.5-60.2-60.3c-10.1-9.8-10.4-26-0.5-36.2l0.5-0.5z" fill="#444852" /></svg>