<?xml version="1.0" standalone="no"?><!DOCTYPE svg PUBLIC "-//W3C//DTD SVG 1.1//EN" "http://www.w3.org/Graphics/SVG/1.1/DTD/svg11.dtd"><svg class="icon" width="200px" height="200.00px" viewBox="0 0 1024 1024" version="1.1" xmlns="http://www.w3.org/2000/svg"><path d="M198.3 88.1l78.5 32.2 78.5-32.2 78.5 32.2 78.5-32.2 78.5 32.2 78.5-32.2 78.5 32.2 78.5-32.2v853.7L748 909.6l-78.5 32.2-78.5-32.2-78.5 32.2-78.5-32.2-78.5 32.2-78.5-32.2-78.5 32.2V88.1z" fill="#FFFFFF" /><path d="M826.5 88.1L748 117.8v717.3l-78.5 32.2-78.5-32.2-78.5 32.2-78.5-32.2-78.5 32.2-78.5-32.2-78.5 32.2v74.5l78.5-32.2 78.5 32.2 78.5-32.2 78.5 32.2 78.5-32.2 78.5 32.2 78.5-32.2 78.5 32.2V88.1z" fill="#E5F0F1" /><path d="M346.2 65.7L267.7 98c-29.8 12.2-11.5 56.9 18.3 44.7l69.4-28.5 69.4 28.5c5.9 2.4 12.4 2.4 18.3 0l69.4-28.5 69.4 28.5c5.9 2.4 12.4 2.4 18.3 0l69.4-28.5 69.4 28.5c5.9 2.4 12.4 2.4 18.3 0l45.2-18.6v721.1c-0.5 32.7 48.8 32.7 48.3 0V88.1c0-17.2-17.4-28.9-33.3-22.4L748 94.2l-69.4-28.5c-5.9-2.4-12.4-2.4-18.3 0l-69.4 28.5-69.4-28.5c-5.9-2.4-12.4-2.4-18.3 0l-69.4 28.5-69.4-28.5c-6.4-2.6-12.4-2.3-18.2 0z m-148.3 6c-13.3 0.2-24 11.2-23.8 24.5v845.7c0 17.2 17.4 28.9 33.3 22.4l69.4-28.5 69.4 28.5c5.9 2.4 12.4 2.4 18.3 0l69.4-28.5 69.4 28.5c5.9 2.4 12.4 2.4 18.3 0l69.4-28.5 69.4 28.5c5.9 2.4 12.4 2.4 18.3 0l69.4-28.5 69.4 28.5c29.8 12.2 48.1-32.5 18.3-44.7l-78.5-32.2c-5.9-2.4-12.4-2.4-18.3 0l-69.4 28.5-69.4-28.5c-5.9-2.4-12.4-2.4-18.3 0l-69.4 28.5-69.5-28.6c-5.9-2.4-12.4-2.4-18.3 0l-69.4 28.5-69.3-28.5c-5.9-2.4-12.4-2.4-18.3 0l-45.2 18.6V96.2c0.2-13.7-10.9-24.8-24.6-24.5z" fill="#444852" /><path d="M375.5 643.8c-13.3-0.2-24.3 10.5-24.5 23.8-0.2 13.3 10.5 24.3 23.8 24.5h274.5c13.3 0.2 24.3-10.5 24.5-23.8S663.4 644 650 643.8H375.5zM423.8 740.5c-13.3-0.2-24.3 10.5-24.5 23.8-0.2 13.3 10.5 24.3 23.8 24.5H601c13.3 0.2 24.3-10.5 24.5-23.8 0.2-13.3-10.5-24.3-23.8-24.5H423.8zM512 241.1c-13.3 0.2-24 11.2-23.8 24.5v9.7c-32.1 7.4-56.4 36.3-56.4 70.5V370c0 39.7 32.7 72.5 72.5 72.5h16.1c13.8 0 24.2 10.4 24.2 24.2v24.2c0 13.8-10.4 24.2-24.2 24.2h-16.1c-13.8 0-24.2-10.4-24.2-24.2 0.2-13.3-10.5-24.3-23.8-24.5-13.3-0.2-24.3 10.5-24.5 23.8v0.7c0 34.2 24.3 63.1 56.4 70.5v9.7c-0.2 13.3 10.5 24.3 23.8 24.5s24.3-10.5 24.5-23.8V561.4c32.1-7.4 56.4-36.3 56.4-70.5v-24.2c0-39.7-32.7-72.5-72.5-72.5h-16.1c-13.8 0-24.2-10.4-24.2-24.2v-24.2c0-13.8 10.4-24.2 24.2-24.2h16.1c13.8 0 24.2 10.4 24.2 24.2-0.2 13.3 10.5 24.3 23.8 24.5s24.3-10.5 24.5-23.8v-0.7c0-34.2-24.3-63.1-56.4-70.5v-9.7c0.2-13.3-10.5-24.3-23.8-24.5h-0.7z" fill="#D7DFEB" /></svg>