<?xml version="1.0" standalone="no"?><!DOCTYPE svg PUBLIC "-//W3C//DTD SVG 1.1//EN" "http://www.w3.org/Graphics/SVG/1.1/DTD/svg11.dtd"><svg class="icon" width="200px" height="200.00px" viewBox="0 0 1024 1024" version="1.1" xmlns="http://www.w3.org/2000/svg"><path d="M68.266667 512C68.266667 266.922667 266.922667 68.266667 512 68.266667s443.733333 198.656 443.733333 443.733333-198.656 443.733333-443.733333 443.733333H121.070933a34.133333 34.133333 0 0 1-23.210666-59.153066l88.9856-82.6368A442.1632 442.1632 0 0 1 68.266667 512z m443.733333 375.466667c207.36 0 375.466667-168.106667 375.466667-375.466667S719.36 136.533333 512 136.533333 136.533333 304.64 136.533333 512c0 96.1536 36.181333 186.4704 100.317867 255.488L283.306667 817.493333 207.9744 887.466667H512z" fill="#4A4A4A" /><path d="M648.533333 443.733333a136.6016 136.6016 0 0 1-102.4 132.232534v2.901333a34.133333 34.133333 0 1 1-68.266666 0V546.133333a34.133333 34.133333 0 0 1 34.133333-34.133333 68.266667 68.266667 0 1 0-68.266667-68.266667 34.133333 34.133333 0 0 1-68.266666 0 136.533333 136.533333 0 1 1 273.066666 0z m-136.533333 273.066667a34.133333 34.133333 0 1 1 0-68.266667 34.133333 34.133333 0 0 1 0 68.266667z" fill="#FF7214" /></svg>