<svg width="36" height="37" viewBox="0 0 36 37" fill="none" xmlns="http://www.w3.org/2000/svg">
<g clip-path="url(#clip0)">
<path d="M10.9844 16.1875H7.23438C6.61338 16.1875 6.10938 15.6695 6.10938 15.0312C6.10938 14.393 6.61338 13.875 7.23438 13.875H10.9844C11.6054 13.875 12.1094 14.393 12.1094 15.0312C12.1094 15.6695 11.6054 16.1875 10.9844 16.1875Z" fill="#FF5C00"/>
<path d="M28.9844 16.1875H17.7344C17.1134 16.1875 16.6094 15.6695 16.6094 15.0312C16.6094 14.393 17.1134 13.875 17.7344 13.875H28.9844C29.6054 13.875 30.1094 14.393 30.1094 15.0312C30.1094 15.6695 29.6054 16.1875 28.9844 16.1875Z" fill="#FF8A00"/>
<path d="M10.9844 22.3541H7.23438C6.61338 22.3541 6.10938 21.8361 6.10938 21.1979C6.10938 20.5596 6.61338 20.0416 7.23438 20.0416H10.9844C11.6054 20.0416 12.1094 20.5596 12.1094 21.1979C12.1094 21.8361 11.6054 22.3541 10.9844 22.3541Z" fill="#FF5C00"/>
<path d="M28.9844 22.3541H17.7344C17.1134 22.3541 16.6094 21.8361 16.6094 21.1979C16.6094 20.5596 17.1134 20.0416 17.7344 20.0416H28.9844C29.6054 20.0416 30.1094 20.5596 30.1094 21.1979C30.1094 21.8361 29.6054 22.3541 28.9844 22.3541Z" fill="#FF8A00"/>
<path d="M10.9844 28.5209H7.23438C6.61338 28.5209 6.10938 28.0029 6.10938 27.3646C6.10938 26.7264 6.61338 26.2084 7.23438 26.2084H10.9844C11.6054 26.2084 12.1094 26.7264 12.1094 27.3646C12.1094 28.0029 11.6054 28.5209 10.9844 28.5209Z" fill="#FF5C00"/>
<path d="M28.9844 28.5209H17.7344C17.1134 28.5209 16.6094 28.0029 16.6094 27.3646C16.6094 26.7264 17.1134 26.2084 17.7344 26.2084H28.9844C29.6054 26.2084 30.1094 26.7264 30.1094 27.3646C30.1094 28.0029 29.6054 28.5209 28.9844 28.5209Z" fill="#FF8A00"/>
<path d="M31.875 35.4582H4.125C1.8495 35.4582 0 33.5573 0 31.2186V5.78109C0 3.44238 1.8495 1.5415 4.125 1.5415H31.875C34.1505 1.5415 36 3.44238 36 5.78109V31.2186C36 33.5573 34.1505 35.4582 31.875 35.4582ZM4.125 3.854C3.0915 3.854 2.25 4.71888 2.25 5.78109V31.2186C2.25 32.2808 3.0915 33.1457 4.125 33.1457H31.875C32.9085 33.1457 33.75 32.2808 33.75 31.2186V5.78109C33.75 4.71888 32.9085 3.854 31.875 3.854H4.125Z" fill="#FF8A00"/>
<path d="M34.875 9.25H1.125C0.504 9.25 0 8.732 0 8.09375C0 7.4555 0.504 6.9375 1.125 6.9375H34.875C35.496 6.9375 36 7.4555 36 8.09375C36 8.732 35.496 9.25 34.875 9.25Z" fill="#FF8A00"/>
</g>
<defs>
<clipPath id="clip0">
<rect width="36" height="37" fill="white"/>
</clipPath>
</defs>
</svg>
