<?xml version="1.0" standalone="no"?><!DOCTYPE svg PUBLIC "-//W3C//DTD SVG 1.1//EN" "http://www.w3.org/Graphics/SVG/1.1/DTD/svg11.dtd"><svg class="icon" width="200px" height="200.00px" viewBox="0 0 1024 1024" version="1.1" xmlns="http://www.w3.org/2000/svg"><path d="M170.8 157.5H689c26 0 47.1 21.1 47.1 47.1v675.3c0 26-21.1 47.1-47.1 47.1H170.8c-26 0-47.1-21.1-47.1-47.1V204.6c0-26 21.1-47.1 47.1-47.1z" fill="#91DDFF" /><path d="M170.8 133.9c-38.7 0-70.7 31.9-70.7 70.7v675.3c0 38.7 31.9 70.7 70.7 70.7h447.6c13 0.2 23.7-10.2 23.9-23.2 0.2-13-10.2-23.7-23.2-23.9H170.8c-13.5 0-23.6-10.1-23.6-23.6V204.6c0-13.5 10.1-23.6 23.6-23.6h47.1c13 0.2 23.7-10.2 23.9-23.2 0.2-13-10.2-23.7-23.2-23.9H170.8zM641.9 133.9c-13-0.2-23.7 10.2-23.9 23.2-0.2 13 10.2 23.7 23.2 23.9H689c13.5 0 23.6 10.1 23.6 23.6v62.8c-0.2 13 10.2 23.7 23.2 23.9s23.7-10.2 23.9-23.2v-63.5c0-38.7-31.9-70.7-70.7-70.7h-47.1z" fill="#444852" /><path d="M217.9 212.4h424c13 0 23.6 10.5 23.6 23.6v596.8c0 13-10.5 23.6-23.6 23.6h-424c-13 0-23.6-10.5-23.6-23.6V236c0.1-13 10.6-23.6 23.6-23.6z" fill="#FFFFFF" /><path d="M343.5 94.7h172.7c26 0 47.1 21.1 47.1 47.1v31.4c0 26-21.1 47.1-47.1 47.1H343.5c-26 0-47.1-21.1-47.1-47.1v-31.4c0-26 21.1-47.1 47.1-47.1z" fill="#D7DFEB" /><path d="M508.4 94.7v55c0 8.7-7 15.7-15.7 15.7H296.4v7.9c0 26.1 21 47.1 47.1 47.1h172.7c26.1 0 47.1-21 47.1-47.1v-31.4c0-26.1-21-47.1-47.1-47.1h-7.8z" fill="#B1C1D6" /><path d="M343.5 71.1c-38.7 0-70.7 31.9-70.7 70.7v31.4c0 38.7 31.9 70.7 70.7 70.7h172.7c38.7 0 70.7-31.9 70.7-70.7v-31.4c0-38.7-31.9-70.7-70.7-70.7H343.5z m0 47.1h172.7c13.5 0 23.6 10.1 23.6 23.6v31.4c0 13.5-10.1 23.6-23.6 23.6H343.5c-13.5 0-23.6-10.1-23.6-23.6v-31.4c0.1-13.5 10.2-23.6 23.6-23.6z" fill="#444852" /><path d="M736.1 495.1m-149.2 0a149.2 149.2 0 1 0 298.4 0 149.2 149.2 0 1 0-298.4 0Z" fill="#FFFFFF" /><path d="M810.3 365.8c13.1 22.6 20 48.2 20.1 74.3 0 82.4-66.8 149.2-149.2 149.2-26 0-51.6-6.9-74.2-19.9 26.6 46.2 75.8 74.8 129.1 74.8 82.4 0 149.2-66.8 149.2-149.2 0-53.3-28.6-102.6-75-129.2z" fill="#E5F0F1" /><path d="M736.1 722.8c21.7 0 39.3 17.6 39.3 39.3v125.6c0 21.7-17.6 39.3-39.3 39.3-21.7 0-39.3-17.6-39.3-39.3V762.1c0.1-21.7 17.7-39.3 39.3-39.3z" fill="#FFEE91" /><path d="M736.1 322.4c-95.1 0-172.7 77.6-172.7 172.7 0 87.1 65.2 159.4 149.2 170.9v38c-22.9 9.4-39.3 31.9-39.3 58v125.6c0 34.4 28.4 62.8 62.8 62.8s62.8-28.4 62.8-62.8v-102c0.2-13-10.2-23.7-23.2-23.9-13-0.2-23.7 10.2-23.9 23.2v102.8c0 9.1-6.6 15.7-15.7 15.7s-15.7-6.6-15.7-15.7V762.1c0-9.1 6.6-15.7 15.7-15.7 13 0 23.6-10.5 23.6-23.6V666c84-11.6 149.2-83.8 149.2-170.9 0-95.1-77.6-172.7-172.8-172.7z m0 47.1c69.7 0 125.6 56 125.6 125.6s-56 125.6-125.6 125.6-125.6-56-125.6-125.6 56-125.6 125.6-125.6z" fill="#444852" /></svg>