<svg width="69" height="69" viewBox="0 0 69 69" fill="none" xmlns="http://www.w3.org/2000/svg">
<path d="M65.1133 68.9707H3.85742C2.83437 68.9707 1.85322 68.5643 1.12981 67.8409C0.406406 67.1175 0 66.1363 0 65.1133V54.3125C0 53.2894 0.406406 52.3083 1.12981 51.5849C1.85322 50.8615 2.83437 50.4551 3.85742 50.4551H65.1133C66.1363 50.4551 67.1175 50.8615 67.8409 51.5849C68.5643 52.3083 68.9707 53.2894 68.9707 54.3125V65.1133C68.9707 66.1363 68.5643 67.1175 67.8409 67.8409C67.1175 68.5643 66.1363 68.9707 65.1133 68.9707ZM64.3418 56.2412C64.3418 55.9343 64.2199 55.6399 64.0029 55.4229C63.7858 55.2059 63.4915 55.084 63.1846 55.084H5.78613C5.47922 55.084 5.18487 55.2059 4.96785 55.4229C4.75083 55.6399 4.62891 55.9343 4.62891 56.2412V57.3984H48.9314C49.5452 57.3984 50.1339 57.6423 50.568 58.0763C51.002 58.5104 51.2458 59.0991 51.2458 59.7129C51.2458 60.3267 51.002 60.9154 50.568 61.3495C50.1339 61.7835 49.5452 62.0273 48.9314 62.0273H4.62891V63.1846C4.62891 63.4915 4.75083 63.7858 4.96785 64.0029C5.18487 64.2199 5.47922 64.3418 5.78613 64.3418H63.1846C63.4915 64.3418 63.7858 64.2199 64.0029 64.0029C64.2199 63.7858 64.3418 63.4915 64.3418 63.1846V56.2412ZM65.1133 43.7432H3.85742C2.83437 43.7432 1.85322 43.3368 1.12981 42.6134C0.406406 41.8899 0 40.9088 0 39.8857V29.085C0 28.0619 0.406406 27.0808 1.12981 26.3574C1.85322 25.6339 2.83437 25.2275 3.85742 25.2275H65.1133C66.1363 25.2275 67.1175 25.6339 67.8409 26.3574C68.5643 27.0808 68.9707 28.0619 68.9707 29.085V39.8857C68.9707 40.9088 68.5643 41.8899 67.8409 42.6134C67.1175 43.3368 66.1363 43.7432 65.1133 43.7432ZM64.3418 31.0137C64.3418 30.7068 64.2199 30.4124 64.0029 30.1954C63.7858 29.9784 63.4915 29.8564 63.1846 29.8564H5.78613C5.47922 29.8564 5.18487 29.9784 4.96785 30.1954C4.75083 30.4124 4.62891 30.7068 4.62891 31.0137V32.1709H29.7465C30.3603 32.1709 30.949 32.4147 31.3831 32.8488C31.8171 33.2828 32.061 33.8715 32.061 34.4854C32.061 35.0992 31.8171 35.6879 31.3831 36.1219C30.949 36.556 30.3603 36.7998 29.7465 36.7998H4.62891V37.957C4.62891 38.2639 4.75083 38.5583 4.96785 38.7753C5.18487 38.9923 5.47922 39.1143 5.78613 39.1143H63.1846C63.4915 39.1143 63.7858 38.9923 64.0029 38.7753C64.2199 38.5583 64.3418 38.2639 64.3418 37.957V31.0137ZM65.1133 18.5156H3.85742C2.83437 18.5156 1.85322 18.1092 1.12981 17.3858C0.406406 16.6624 0 15.6813 0 14.6582V3.85742C0 2.83437 0.406406 1.85322 1.12981 1.12981C1.85322 0.406406 2.83437 0 3.85742 0H65.1133C66.1363 0 67.1175 0.406406 67.8409 1.12981C68.5643 1.85322 68.9707 2.83437 68.9707 3.85742V14.6582C68.9707 15.6813 68.5643 16.6624 67.8409 17.3858C67.1175 18.1092 66.1363 18.5156 65.1133 18.5156ZM64.3418 5.78613C64.3418 5.47922 64.2199 5.18487 64.0029 4.96785C63.7858 4.75083 63.4915 4.62891 63.1846 4.62891H5.78613C5.47922 4.62891 5.18487 4.75083 4.96785 4.96785C4.75083 5.18487 4.62891 5.47922 4.62891 5.78613V6.94336H55.5469C56.1607 6.94336 56.7494 7.1872 57.1834 7.62125C57.6175 8.05529 57.8613 8.64398 57.8613 9.25781C57.8613 9.87164 57.6175 10.4603 57.1834 10.8944C56.7494 11.3284 56.1607 11.5723 55.5469 11.5723H4.62891V12.7295C4.62891 13.0364 4.75083 13.3308 4.96785 13.5478C5.18487 13.7648 5.47922 13.8867 5.78613 13.8867H63.1846C63.4915 13.8867 63.7858 13.7648 64.0029 13.5478C64.2199 13.3308 64.3418 13.0364 64.3418 12.7295V5.78613Z" fill="#414141"/>
<path d="M49.3025 57.4551H5V62.084H49.3025C49.9163 62.084 50.505 61.8401 50.9391 61.4061C51.3731 60.9721 51.6169 60.3834 51.6169 59.7695C51.6169 59.1557 51.3731 58.567 50.9391 58.133C50.505 57.6989 49.9163 57.4551 49.3025 57.4551Z" fill="#FDB242"/>
<path d="M30.1176 32.2275H5V36.8564H30.1176C30.7314 36.8564 31.3201 36.6126 31.7542 36.1786C32.1882 35.7445 32.4321 35.1558 32.4321 34.542C32.4321 33.9282 32.1882 33.3395 31.7542 32.9054C31.3201 32.4714 30.7314 32.2275 30.1176 32.2275Z" fill="#FDB242"/>
<path d="M55.918 7H5V11.6289H55.918C56.5318 11.6289 57.1205 11.3851 57.5545 10.951C57.9886 10.517 58.2324 9.92828 58.2324 9.31445C58.2324 8.70062 57.9886 8.11193 57.5545 7.67789C57.1205 7.24384 56.5318 7 55.918 7Z" fill="#FDB242"/>
</svg>
