<?xml version="1.0" encoding="utf-8"?>
<!-- Generator: Adobe Illustrator 22.1.0, SVG Export Plug-In . SVG Version: 6.00 Build 0)  -->
<svg version="1.1" id="Layer_1" xmlns="http://www.w3.org/2000/svg" xmlns:xlink="http://www.w3.org/1999/xlink" x="0px" y="0px"
	 viewBox="0 0 709 688" style="enable-background:new 0 0 709 688;" xml:space="preserve">
<style type="text/css">
	.st0{fill:none;}
	.st1{fill:#FE6C41;}
	.st2{fill:#FFC550;}
	.st3{fill:#21BF73;}
	.st4{fill:#FFDEA4;}
	.st5{fill:#E9F2E4;}
	.st6{fill:#848484;}
</style>
<g id="Layer_1_1_">
</g>
<g id="Layer_3">
</g>
<g id="Layer_2_1_">
	<g>
		<path class="st0" d="M401.1,183.1c0.6-1.4,1.2-2.8,1.8-4.3C402.3,180.3,401.8,181.7,401.1,183.1z"/>
		<path class="st0" d="M398.6,188.9c0.6-1.4,1.3-2.9,1.9-4.3C399.8,186.1,399.2,187.5,398.6,188.9z"/>
		<path class="st0" d="M406,171.4c0.5-1.4,1.1-2.8,1.6-4.2C407,168.6,406.5,170,406,171.4z"/>
		<path class="st0" d="M396,194.7c0.7-1.4,1.3-2.9,2-4.3C397.3,191.8,396.6,193.2,396,194.7z"/>
		<path class="st0" d="M403.5,177.3c0.6-1.4,1.1-2.8,1.7-4.2C404.8,174.5,404.1,175.9,403.5,177.3z"/>
		<path class="st0" d="M390.5,206c0.7-1.5,1.5-2.9,2.2-4.4C392,203.1,391.2,204.5,390.5,206z"/>
		<path class="st0" d="M384.8,217.1c0.8-1.5,1.6-2.9,2.4-4.4C386.3,214.2,385.5,215.7,384.8,217.1z"/>
		<path class="st0" d="M381.8,222.6c0.8-1.5,1.7-3,2.5-4.5C383.3,219.7,382.5,221.2,381.8,222.6z"/>
		<path class="st0" d="M408.2,165.5c0.5-1.4,1-2.8,1.5-4.2C409.2,162.7,408.8,164.1,408.2,165.5z"/>
		<path class="st0" d="M387.6,211.6c0.8-1.5,1.5-2.9,2.3-4.4C389.2,208.7,388.5,210.1,387.6,211.6z"/>
		<path class="st0" d="M393.3,200.4c0.7-1.5,1.4-2.9,2.1-4.4C394.8,197.5,394,198.9,393.3,200.4z"/>
		<path class="st0" d="M419.8,129c0.3-1.3,0.7-2.6,1-3.9C420.5,126.4,420.2,127.7,419.8,129z"/>
		<path class="st0" d="M423,116.5c0.3-1.3,0.6-2.5,0.9-3.8C423.6,114,423.3,115.2,423,116.5z"/>
		<path class="st0" d="M421.5,122.8c0.3-1.3,0.6-2.6,1-3.8C422.1,120.2,421.8,121.5,421.5,122.8z"/>
		<path class="st0" d="M424.5,110.2c0.3-1.2,0.5-2.5,0.8-3.7C425,107.7,424.8,109,424.5,110.2z"/>
		<path class="st0" d="M425.8,103.9c0.2-1.2,0.5-2.5,0.7-3.7C426.2,101.4,426,102.6,425.8,103.9z"/>
		<path class="st0" d="M378.6,228.1c0.9-1.5,1.7-3,2.6-4.5C380.3,225.1,379.5,226.6,378.6,228.1z"/>
		<path class="st0" d="M418.1,135.2c0.4-1.3,0.8-2.6,1.1-3.9C419,132.6,418.5,133.9,418.1,135.2z"/>
		<path class="st0" d="M412.5,153.5c0.5-1.4,0.9-2.7,1.4-4.1C413.3,150.8,413,152.1,412.5,153.5z"/>
		<path class="st0" d="M410.3,159.5c0.5-1.4,1-2.7,1.4-4.1C411.3,156.8,410.8,158.1,410.3,159.5z"/>
		<path class="st0" d="M414.5,147.4c0.4-1.3,0.9-2.7,1.3-4C415.3,144.7,414.8,146.1,414.5,147.4z"/>
		<path class="st0" d="M416.3,141.3c0.4-1.3,0.8-2.6,1.2-4C417.1,138.7,416.8,140,416.3,141.3z"/>
		<path class="st0" d="M343.3,279.3c1.2-1.5,2.4-3,3.6-4.5C345.8,276.4,344.5,277.9,343.3,279.3z"/>
		<path class="st0" d="M323,302.7c1.4-1.4,2.7-2.9,4-4.4C325.8,299.8,324.5,301.3,323,302.7z"/>
		<path class="st0" d="M314.5,311.6c1.4-1.4,2.8-2.9,4.2-4.3C317.2,308.8,315.8,310.2,314.5,311.6z"/>
		<path class="st0" d="M335.5,288.9c1.3-1.5,2.5-3,3.8-4.4C338,285.9,336.6,287.4,335.5,288.9z"/>
		<path class="st0" d="M305.6,320.2c1.5-1.4,2.9-2.8,4.4-4.2C308.5,317.4,307,318.8,305.6,320.2z"/>
		<path class="st0" d="M327.2,298.2c1.3-1.5,2.6-2.9,3.9-4.4C329.8,295.2,328.5,296.7,327.2,298.2z"/>
		<path class="st0" d="M331.3,293.6c1.3-1.5,2.6-2.9,3.8-4.4C334,290.6,332.6,292.1,331.3,293.6z"/>
		<path class="st0" d="M252.8,362.6L252.8,362.6c13.7-9.2,26.7-19.2,39.2-30C279.5,343.4,266.3,353.4,252.8,362.6z"/>
		<path class="st0" d="M291.8,332.7c1.6-1.3,3.1-2.7,4.6-4.1C295,330,293.5,331.3,291.8,332.7z"/>
		<path class="st0" d="M296.5,328.6c1.5-1.4,3-2.7,4.6-4.1C299.5,325.9,298,327.2,296.5,328.6z"/>
		<path class="st0" d="M301,324.4c1.5-1.4,3-2.8,4.5-4.2C304,321.7,302.5,323.1,301,324.4z"/>
		<path class="st0" d="M339.5,284.1c1.2-1.5,2.4-3,3.7-4.5C341.8,281.2,340.6,282.7,339.5,284.1z"/>
		<path class="st0" d="M362,254.4c1-1.5,2.1-3,3.1-4.5C364,251.4,363,252.9,362,254.4z"/>
		<path class="st0" d="M365.5,249.3c1-1.5,2-3,3-4.5C367.3,246.3,366.5,247.8,365.5,249.3z"/>
		<path class="st0" d="M368.8,244.1c1-1.5,1.9-3,2.9-4.5C370.8,241.1,369.8,242.6,368.8,244.1z"/>
		<path class="st0" d="M372.1,238.8c0.9-1.5,1.9-3,2.8-4.5C374,235.8,373,237.3,372.1,238.8z"/>
		<path class="st0" d="M358.3,259.5c1.1-1.5,2.1-3,3.2-4.5C360.5,256.5,359.5,258,358.3,259.5z"/>
		<path class="st0" d="M351,269.6c1.1-1.5,2.3-3,3.4-4.5C353.2,266.6,352.1,268.1,351,269.6z"/>
		<path class="st0" d="M427,97.5c0.2-1.2,0.5-2.4,0.7-3.7C427.5,95.1,427.2,96.3,427,97.5z"/>
		<path class="st0" d="M347.2,274.5c1.2-1.5,2.3-3,3.5-4.5C349.5,271.5,348.3,273,347.2,274.5z"/>
		<path class="st0" d="M354.8,264.6c1.1-1.5,2.2-3,3.3-4.5C356.8,261.6,355.8,263.1,354.8,264.6z"/>
		<path class="st0" d="M375.5,233.4c0.9-1.5,1.8-3,2.7-4.5C377.2,230.5,376.3,232,375.5,233.4z"/>
		<path class="st0" d="M318.8,307.2c1.4-1.4,2.8-2.9,4.1-4.3C321.5,304.3,320.1,305.8,318.8,307.2z"/>
		<path class="st0" d="M433.6,38.2c0-0.9,0.1-1.8,0.1-2.7C433.6,36.4,433.6,37.3,433.6,38.2z"/>
		<path class="st0" d="M431.8,65c0.1-1.1,0.2-2.2,0.3-3.3C432,62.8,431.8,63.9,431.8,65z"/>
		<path class="st0" d="M433.8,31.2c0-0.8,0-1.6,0.1-2.4C433.8,29.7,433.8,30.4,433.8,31.2z"/>
		<path class="st0" d="M430.1,78.2c0.2-1.2,0.3-2.3,0.5-3.5C430.5,75.8,430.2,77,430.1,78.2z"/>
		<path class="st0" d="M433.2,45c0.1-1,0.1-1.9,0.2-2.9C433.5,43.1,433.3,44,433.2,45z"/>
		<path class="st0" d="M432.3,58.5c0.1-1.1,0.2-2.2,0.3-3.3C432.5,56.3,432.5,57.4,432.3,58.5z"/>
		<path class="st0" d="M431,71.6c0.1-1.1,0.3-2.2,0.4-3.4C431.2,69.4,431.1,70.5,431,71.6z"/>
		<path class="st0" d="M432.8,51.8c0.1-1,0.2-2.1,0.2-3.1C433,49.7,433,50.8,432.8,51.8z"/>
		<path class="st0" d="M314.3,311.7c-1.4,1.4-2.9,2.8-4.3,4.3C311.5,314.5,313,313.1,314.3,311.7z"/>
		<path class="st0" d="M428.1,91.1c0.2-1.2,0.4-2.4,0.6-3.6C428.5,88.7,428.3,89.9,428.1,91.1z"/>
		<path class="st0" d="M362.5,477.4L362.5,477.4C354.6,483.2,184,611.1,80,689l0,0C178.1,615.5,336,497.3,362.5,477.4z"/>
		<path class="st0" d="M429.1,84.6c0.2-1.2,0.4-2.3,0.5-3.5C429.5,82.3,429.3,83.5,429.1,84.6z"/>
		<path class="st1" d="M362.5,477.4c0.1-0.1,0.1-0.1,0.2-0.2v-0.1C362.8,477.1,362.6,477.2,362.5,477.4L362.5,477.4z"/>
		<g>
			<path class="st2" d="M249.8,362.6c-1.3,0.9-2.7,1.7-4,2.6c-64,41.3-140.3,65.3-222.1,65.3c-7.6,0-16.2-0.2-23.7-0.6v258.6h79
				c47.6-35.6,110-83.3,163.6-123.4c-23.2-25.9-37.2-60.1-37.2-97.5C205.3,426.4,222.3,389.2,249.8,362.6z"/>
			<path class="st3" d="M362.5,477.3l-0.2-0.2C362.2,477.1,329,502.3,362.5,477.3z"/>
			<path class="st4" d="M361.5,476.3c-33.4,25-0.2-0.2-0.2-0.2L361.5,476.3c0.1-0.1,0.2-0.1,0.3-0.2L249.1,363.4
				c-0.1,0.1-0.2,0.1-0.3,0.2c-27.4,26.6-44.4,63.8-44.4,105c0,37.5,14.1,71.6,37.2,97.5C305,518.6,357.2,479.5,361.5,476.3
				L361.5,476.3z"/>
		</g>
		<path class="st2" d="M362.5,477.3c0.2-0.1,0.3-0.2,0.3-0.2C362.6,477.2,362.5,477.3,362.5,477.3L362.5,477.3z"/>
		<path class="st5" d="M431.8,27.9c0,0.8,0,1.6-0.1,2.4c0,1.4-0.1,2.8-0.1,4.3c0,0.9-0.1,1.8-0.1,2.7c0,1.3-0.1,2.6-0.2,3.9
			c0,1-0.1,1.9-0.2,2.9c-0.1,1.2-0.1,2.5-0.2,3.7c-0.1,1.1-0.1,2.1-0.2,3.1c-0.1,1.1-0.2,2.3-0.2,3.4c-0.1,1.1-0.2,2.2-0.3,3.3
			c-0.1,1.1-0.2,2.2-0.3,3.2c-0.1,1.1-0.2,2.2-0.3,3.3c-0.1,1.1-0.2,2.1-0.3,3.2s-0.3,2.2-0.4,3.4c-0.1,1-0.2,2.1-0.4,3.1
			c-0.1,1.2-0.3,2.3-0.5,3.5c-0.1,1-0.3,2-0.4,2.9c-0.2,1.2-0.4,2.4-0.5,3.5c-0.1,1-0.3,1.9-0.4,2.9c-0.2,1.2-0.4,2.4-0.6,3.6
			c-0.2,0.9-0.3,1.8-0.5,2.8c-0.2,1.2-0.4,2.4-0.7,3.7c-0.2,0.9-0.3,1.8-0.5,2.7c-0.2,1.2-0.5,2.5-0.7,3.7c-0.2,0.9-0.3,1.7-0.5,2.6
			c-0.3,1.3-0.5,2.5-0.8,3.7c-0.2,0.8-0.4,1.7-0.5,2.5c-0.3,1.3-0.6,2.5-0.9,3.8c-0.2,0.8-0.4,1.6-0.6,2.4c-0.3,1.3-0.6,2.6-1,3.8
			c-0.2,0.8-0.4,1.6-0.6,2.3c-0.3,1.3-0.7,2.6-1,3.9c-0.2,0.7-0.4,1.5-0.6,2.3c-0.4,1.3-0.7,2.6-1.1,3.9c-0.2,0.7-0.4,1.4-0.6,2.2
			c-0.4,1.3-0.8,2.7-1.2,4c-0.2,0.7-0.4,1.4-0.6,2.1c-0.4,1.3-0.8,2.7-1.3,4c-0.2,0.7-0.4,1.3-0.6,2c-0.4,1.4-0.9,2.7-1.4,4.1
			c-0.2,0.6-0.4,1.3-0.6,1.9c-0.5,1.4-1,2.7-1.4,4.1c-0.2,0.6-0.4,1.2-0.6,1.8c-0.5,1.4-1,2.8-1.5,4.2c-0.2,0.6-0.4,1.2-0.6,1.7
			c-0.5,1.4-1.1,2.8-1.6,4.2c-0.2,0.5-0.4,1.1-0.6,1.6c-0.6,1.4-1.1,2.8-1.7,4.2c-0.2,0.5-0.4,1-0.6,1.6c-0.6,1.4-1.2,2.8-1.8,4.3
			c-0.2,0.5-0.4,1-0.6,1.5c-0.6,1.4-1.3,2.9-1.9,4.3c-0.2,0.5-0.4,1-0.6,1.4c-0.7,1.4-1.3,2.9-2,4.3c-0.2,0.4-0.4,0.9-0.6,1.3
			c-0.7,1.5-1.4,2.9-2.1,4.4c-0.2,0.4-0.4,0.8-0.6,1.2c-0.7,1.5-1.4,2.9-2.2,4.4c-0.2,0.4-0.4,0.8-0.6,1.2c-0.7,1.5-1.5,2.9-2.3,4.4
			c-0.2,0.4-0.4,0.7-0.6,1.1c-0.8,1.5-1.6,3-2.4,4.4c-0.2,0.3-0.4,0.7-0.6,1c-0.8,1.5-1.6,3-2.5,4.5c-0.2,0.3-0.4,0.6-0.5,1
			c-0.8,1.5-1.7,3-2.6,4.5c-0.2,0.3-0.3,0.6-0.5,0.9c-0.9,1.5-1.8,3-2.7,4.5c-0.2,0.3-0.3,0.6-0.5,0.8c-0.9,1.5-1.8,3-2.8,4.5
			c-0.2,0.3-0.3,0.5-0.5,0.8c-0.9,1.5-1.9,3-2.9,4.5c-0.2,0.2-0.3,0.5-0.4,0.7c-1,1.5-2,3-3,4.5c-0.1,0.2-0.3,0.4-0.4,0.6
			c-1,1.5-2,3-3.1,4.5c-0.1,0.2-0.3,0.4-0.4,0.6c-1,1.5-2.1,3-3.2,4.5c-0.1,0.2-0.3,0.4-0.4,0.5c-1.1,1.5-2.2,3-3.3,4.5
			c-0.1,0.2-0.2,0.3-0.3,0.5c-1.1,1.5-2.2,3-3.4,4.5c-0.1,0.1-0.2,0.3-0.3,0.4c-1.1,1.5-2.3,3-3.5,4.5c-0.1,0.1-0.2,0.3-0.3,0.4
			c-1.2,1.5-2.4,3-3.6,4.5c-0.1,0.1-0.2,0.2-0.3,0.3c-1.2,1.5-2.4,3-3.7,4.5c-0.1,0.1-0.2,0.2-0.2,0.3c-1.2,1.5-2.5,3-3.8,4.4
			c-0.1,0.1-0.1,0.2-0.2,0.2c-1.3,1.5-2.6,3-3.8,4.4c-0.1,0.1-0.1,0.1-0.2,0.2c-1.3,1.5-2.6,2.9-3.9,4.4c-0.1,0.1-0.1,0.1-0.2,0.2
			c-1.3,1.5-2.7,2.9-4,4.4l-0.1,0.1c-1.4,1.5-2.7,2.9-4.1,4.3l-0.1,0.1c-1.4,1.4-2.8,2.9-4.2,4.3l-0.1,0.1c-1.4,1.4-2.9,2.8-4.3,4.3
			c0,0,0,0-0.1,0.1c-1.5,1.4-2.9,2.8-4.4,4.2l0,0c-1.5,1.4-3,2.8-4.5,4.2l0,0c-1.5,1.4-3,2.8-4.6,4.1l0,0c-1.5,1.4-3.1,2.7-4.6,4.1
			l0,0c-12.4,10.7-25.5,20.8-39.2,30l0,0c-0.8,0.5-1.6,1-2.4,1.6l112.4,112.4C506.5,366.6,602.2,194.8,607.3,0H431.4
			c0.4,7.2,0.6,13.9,0.6,21.2C432,23.4,432,25.7,431.8,27.9z"/>
		<path class="st3" d="M250.1,364.4c0.1-0.1,0.2-0.1,0.3-0.2l0,0c0.8-0.5,1.6-1.1,2.4-1.6l0,0c13.7-9.2,26.7-19.2,39.2-30l0,0
			c1.6-1.3,3.1-2.7,4.6-4.1l0,0c1.5-1.4,3-2.7,4.6-4.1l0,0c1.5-1.4,3-2.8,4.5-4.2l0,0c1.5-1.4,2.9-2.8,4.4-4.2c0,0,0,0,0.1-0.1
			c1.4-1.4,2.9-2.8,4.3-4.3l0.1-0.1c1.4-1.4,2.8-2.9,4.2-4.3l0.1-0.1c1.4-1.4,2.8-2.9,4.1-4.3l0.1-0.1c1.4-1.4,2.7-2.9,4-4.4
			c0.1-0.1,0.1-0.1,0.2-0.2c1.3-1.5,2.6-2.9,3.9-4.4c0.1-0.1,0.1-0.1,0.2-0.2c1.3-1.5,2.6-2.9,3.8-4.4c0.1-0.1,0.1-0.2,0.2-0.2
			c1.3-1.5,2.5-3,3.8-4.4c0.1-0.1,0.2-0.2,0.2-0.3c1.2-1.5,2.4-3,3.7-4.5c0.1-0.1,0.2-0.2,0.3-0.3c1.2-1.5,2.4-3,3.6-4.5
			c0.1-0.1,0.2-0.3,0.3-0.4c1.2-1.5,2.3-3,3.5-4.5c0.1-0.1,0.2-0.3,0.3-0.4c1.1-1.5,2.3-3,3.4-4.5c0.1-0.2,0.2-0.3,0.3-0.5
			c1.1-1.5,2.2-3,3.3-4.5c0.1-0.2,0.3-0.4,0.4-0.5c1.1-1.5,2.1-3,3.2-4.5c0.1-0.2,0.3-0.4,0.4-0.6c1-1.5,2.1-3,3.1-4.5
			c0.1-0.2,0.3-0.4,0.4-0.6c1-1.5,2-3,3-4.5c0.2-0.2,0.3-0.5,0.4-0.7c1-1.5,1.9-3,2.9-4.5c0.2-0.3,0.3-0.5,0.5-0.8
			c0.9-1.5,1.9-3,2.8-4.5c0.2-0.3,0.3-0.6,0.5-0.8c0.9-1.5,1.8-3,2.7-4.5c0.2-0.3,0.4-0.6,0.5-0.9c0.9-1.5,1.7-3,2.6-4.5
			c0.2-0.3,0.4-0.6,0.5-1c0.8-1.5,1.7-3,2.5-4.5c0.2-0.3,0.4-0.7,0.6-1c0.8-1.5,1.6-2.9,2.4-4.4c0.2-0.4,0.4-0.7,0.6-1.1
			c0.8-1.5,1.5-2.9,2.3-4.4c0.2-0.4,0.4-0.8,0.6-1.2c0.7-1.5,1.5-2.9,2.2-4.4c0.2-0.4,0.4-0.8,0.6-1.2c0.7-1.5,1.4-2.9,2.1-4.4
			c0.2-0.4,0.4-0.9,0.6-1.3c0.7-1.4,1.3-2.9,2-4.3c0.2-0.5,0.4-0.9,0.6-1.4c0.6-1.4,1.3-2.9,1.9-4.3c0.2-0.5,0.4-1,0.6-1.5
			c0.6-1.4,1.2-2.8,1.8-4.3c0.2-0.5,0.4-1,0.6-1.6c0.6-1.4,1.1-2.8,1.7-4.2c0.2-0.5,0.4-1.1,0.6-1.6c0.5-1.4,1.1-2.8,1.6-4.2
			c0.2-0.6,0.4-1.2,0.6-1.7c0.5-1.4,1-2.8,1.5-4.2c0.2-0.6,0.4-1.2,0.6-1.8c0.5-1.4,1-2.7,1.4-4.1c0.2-0.6,0.4-1.3,0.6-1.9
			c0.5-1.4,0.9-2.7,1.4-4.1c0.2-0.7,0.4-1.3,0.6-2c0.4-1.3,0.9-2.7,1.3-4c0.2-0.7,0.4-1.4,0.6-2.1c0.4-1.3,0.8-2.6,1.2-4
			c0.2-0.7,0.4-1.4,0.6-2.2c0.4-1.3,0.8-2.6,1.1-3.9c0.2-0.7,0.4-1.5,0.6-2.3c0.3-1.3,0.7-2.6,1-3.9c0.2-0.8,0.4-1.6,0.6-2.3
			c0.3-1.3,0.6-2.6,1-3.8c0.2-0.8,0.4-1.6,0.6-2.4c0.3-1.3,0.6-2.5,0.9-3.8c0.2-0.8,0.4-1.7,0.5-2.5c0.3-1.2,0.5-2.5,0.8-3.7
			c0.2-0.9,0.3-1.7,0.5-2.6c0.2-1.2,0.5-2.5,0.7-3.7c0.2-0.9,0.3-1.8,0.5-2.7c0.2-1.2,0.5-2.4,0.7-3.7c0.2-0.9,0.3-1.8,0.5-2.8
			c0.2-1.2,0.4-2.4,0.6-3.6c0.2-1,0.3-1.9,0.4-2.9c0.2-1.2,0.4-2.4,0.5-3.5c0.1-1,0.3-2,0.4-2.9c0.2-1.2,0.3-2.3,0.5-3.5
			c0.1-1,0.2-2.1,0.4-3.1c0.1-1.1,0.3-2.2,0.4-3.4c0.1-1.1,0.2-2.1,0.3-3.2s0.2-2.2,0.3-3.3c0.1-1.1,0.2-2.2,0.3-3.2
			c0.1-1.1,0.2-2.2,0.3-3.3c0.1-1.1,0.2-2.3,0.2-3.4c0.1-1,0.2-2.1,0.2-3.1c0.1-1.2,0.1-2.4,0.2-3.7c0.1-1,0.1-1.9,0.2-2.9
			c0.1-1.3,0.1-2.6,0.2-3.9c0-0.9,0.1-1.8,0.1-2.7c0-1.4,0.1-2.8,0.1-4.3c0-0.8,0-1.6,0.1-2.4c0-2.2,0.1-4.4,0.1-6.7
			c0-7.3-0.1-15-0.5-22.2H0v430.7c7.6,0.4,16.2,0.7,23.8,0.7c81.6,0,157.7-23.6,221.9-64.3C247.1,366.3,248.6,365.4,250.1,364.4
			L250.1,364.4z"/>
		<path class="st3" d="M250.1,364.4c-1.4,0.9-2.9,1.9-4.3,2.8C247.1,366.3,248.6,365.4,250.1,364.4L250.1,364.4z"/>
		<path class="st3" d="M350.6,270c0.1-0.1,0.2-0.3,0.3-0.4C350.8,269.7,350.8,269.8,350.6,270z"/>
		<path class="st3" d="M354.3,265c0.1-0.2,0.2-0.3,0.3-0.5C354.5,264.7,354.5,264.9,354.3,265z"/>
		<path class="st3" d="M339.1,284.4c0.1-0.1,0.2-0.2,0.2-0.3C339.3,284.2,339.2,284.3,339.1,284.4z"/>
		<path class="st3" d="M426.5,100.2c0.2-0.9,0.3-1.8,0.5-2.7C426.8,98.4,426.6,99.3,426.5,100.2z"/>
		<path class="st3" d="M347,274.9c0.1-0.1,0.2-0.3,0.3-0.4C347.1,274.6,347,274.7,347,274.9z"/>
		<path class="st3" d="M343,279.7c0.1-0.1,0.2-0.2,0.3-0.3C343.2,279.5,343.1,279.6,343,279.7z"/>
		<path class="st3" d="M422.5,118.9c0.2-0.8,0.4-1.6,0.6-2.4C422.8,117.3,422.6,118.1,422.5,118.9z"/>
		<path class="st3" d="M411.8,155.4c0.2-0.6,0.4-1.3,0.6-1.9C412.2,154.1,412,154.8,411.8,155.4z"/>
		<path class="st3" d="M358,260.1c0.1-0.2,0.3-0.4,0.4-0.5C358.2,259.7,358.1,259.9,358,260.1z"/>
		<path class="st3" d="M429.8,81.1c0.1-1,0.3-2,0.4-2.9C430,79.1,429.8,80.1,429.8,81.1z"/>
		<path class="st3" d="M368.3,244.8c0.2-0.2,0.3-0.5,0.4-0.7C368.6,244.3,368.5,244.5,368.3,244.8z"/>
		<path class="st3" d="M365,249.9c0.1-0.2,0.3-0.4,0.4-0.6C365.2,249.5,365.1,249.7,365,249.9z"/>
		<path class="st3" d="M361.5,255c0.1-0.2,0.3-0.4,0.4-0.6C361.8,254.6,361.6,254.8,361.5,255z"/>
		<path class="st3" d="M428.8,87.5c0.2-1,0.3-1.9,0.4-2.9C429,85.6,429,86.5,428.8,87.5z"/>
		<path class="st3" d="M427.6,93.8c0.2-0.9,0.3-1.8,0.5-2.8C428,92,427.8,92.9,427.6,93.8z"/>
		<path class="st3" d="M310,316C310,316,310,316,310,316C310,316,310,316,310,316z"/>
		<path class="st3" d="M305.5,320.3L305.5,320.3L305.5,320.3z"/>
		<path class="st3" d="M296.5,328.6L296.5,328.6L296.5,328.6z"/>
		<path class="st3" d="M291.8,332.7L291.8,332.7L291.8,332.7z"/>
		<path class="st3" d="M318.6,307.3l0.1-0.1C318.8,307.2,318.8,307.3,318.6,307.3z"/>
		<path class="st3" d="M301,324.5L301,324.5L301,324.5z"/>
		<path class="st3" d="M331.1,293.8c0.1-0.1,0.1-0.1,0.2-0.2C331.3,293.6,331.2,293.7,331.1,293.8z"/>
		<path class="st3" d="M335.2,289.1c0.1-0.1,0.1-0.2,0.2-0.2C335.3,289,335.2,289,335.2,289.1z"/>
		<path class="st3" d="M425.2,106.5c0.2-0.9,0.3-1.7,0.5-2.6C425.6,104.7,425.5,105.6,425.2,106.5z"/>
		<path class="st3" d="M327,298.3c0.1-0.1,0.1-0.1,0.2-0.2C327.1,298.2,327.1,298.3,327,298.3z"/>
		<path class="st3" d="M371.6,239.5c0.2-0.3,0.3-0.5,0.5-0.8C372,239,371.8,239.3,371.6,239.5z"/>
		<path class="st3" d="M323,302.9l0.1-0.1C323,302.8,323,302.8,323,302.9z"/>
		<path class="st3" d="M424,112.7c0.2-0.8,0.4-1.7,0.5-2.5C424.2,111,424,111.9,424,112.7z"/>
		<path class="st3" d="M421,125.1c0.2-0.8,0.4-1.6,0.6-2.3C421.3,123.5,421.1,124.3,421,125.1z"/>
		<path class="st3" d="M433,48.7c0.1-1.2,0.1-2.4,0.2-3.7C433.2,46.2,433.1,47.5,433,48.7z"/>
		<path class="st3" d="M398,190.3c0.2-0.5,0.4-0.9,0.6-1.4C398.5,189.4,398.2,189.9,398,190.3z"/>
		<path class="st3" d="M415.8,143.4c0.2-0.7,0.4-1.4,0.6-2.1C416.1,142,416,142.7,415.8,143.4z"/>
		<path class="st3" d="M400.5,184.6c0.2-0.5,0.4-1,0.6-1.5C401,183.6,400.8,184.1,400.5,184.6z"/>
		<path class="st3" d="M433.5,42.1c0.1-1.3,0.1-2.6,0.2-3.9C433.5,39.5,433.5,40.8,433.5,42.1z"/>
		<path class="st3" d="M395.5,196c0.2-0.4,0.4-0.9,0.6-1.3C395.8,195.1,395.6,195.6,395.5,196z"/>
		<path class="st3" d="M392.8,201.6c0.2-0.4,0.4-0.8,0.6-1.2C393.1,200.8,393,201.2,392.8,201.6z"/>
		<path class="st3" d="M413.8,149.4c0.2-0.7,0.4-1.3,0.6-2C414.2,148.1,414,148.8,413.8,149.4z"/>
		<path class="st3" d="M432.6,55.2c0.1-1.1,0.2-2.3,0.2-3.4C432.8,53,432.8,54.1,432.6,55.2z"/>
		<path class="st3" d="M432,61.7c0.1-1.1,0.2-2.2,0.3-3.2C432.2,59.6,432.1,60.7,432,61.7z"/>
		<path class="st3" d="M409.8,161.3c0.2-0.6,0.4-1.2,0.6-1.8C410.1,160.1,410,160.7,409.8,161.3z"/>
		<path class="st3" d="M407.5,167.2c0.2-0.6,0.4-1.2,0.6-1.7C408,166.1,407.8,166.6,407.5,167.2z"/>
		<path class="st3" d="M430.6,74.7c0.1-1,0.2-2.1,0.4-3.1C430.8,72.6,430.8,73.7,430.6,74.7z"/>
		<path class="st3" d="M403,178.9c0.2-0.5,0.4-1,0.6-1.6C403.3,177.8,403.1,178.3,403,178.9z"/>
		<path class="st3" d="M431.3,68.2c0.1-1.1,0.2-2.1,0.3-3.2C431.5,66.1,431.5,67.2,431.3,68.2z"/>
		<path class="st3" d="M405.2,173.1c0.2-0.5,0.4-1.1,0.6-1.6C405.8,172,405.5,172.5,405.2,173.1z"/>
		<path class="st3" d="M433.8,35.5c0-1.4,0.1-2.8,0.1-4.3C433.8,32.7,433.8,34.1,433.8,35.5z"/>
		<path class="st3" d="M381.1,223.6c0.2-0.3,0.4-0.6,0.5-1C381.5,223,381.3,223.3,381.1,223.6z"/>
		<path class="st3" d="M433.8,28.9c0-2.2,0.1-4.4,0.1-6.7C434,24.4,434,26.7,433.8,28.9z"/>
		<path class="st3" d="M314.5,311.6C314.5,311.6,314.3,311.7,314.5,311.6C314.3,311.7,314.5,311.6,314.5,311.6z"/>
		<path class="st3" d="M384.1,218.2c0.2-0.3,0.4-0.7,0.6-1C384.5,217.5,384.3,217.8,384.1,218.2z"/>
		<path class="st3" d="M375,234.3c0.2-0.3,0.3-0.6,0.5-0.8C375.2,233.7,375,234,375,234.3z"/>
		<path class="st3" d="M378,229c0.2-0.3,0.4-0.6,0.5-0.9C378.5,228.4,378.2,228.7,378,229z"/>
		<path class="st3" d="M252.8,362.6c-0.8,0.5-1.6,1.1-2.4,1.6l0,0C251.1,363.7,252,363.2,252.8,362.6L252.8,362.6z"/>
		<path class="st3" d="M387.1,212.7c0.2-0.4,0.4-0.7,0.6-1.1C387.5,212,387.3,212.3,387.1,212.7z"/>
		<path class="st3" d="M419.2,131.2c0.2-0.7,0.4-1.5,0.6-2.3C419.6,129.7,419.5,130.5,419.2,131.2z"/>
		<path class="st3" d="M390,207.2c0.2-0.4,0.4-0.8,0.6-1.2C390.3,206.4,390.1,206.8,390,207.2z"/>
		<path class="st3" d="M417.5,137.3c0.2-0.7,0.4-1.4,0.6-2.2C418,135.9,417.8,136.6,417.5,137.3z"/>
		<path class="st1" d="M709,688.5l1-213.4L709.8,0H607.3c-5.1,194.8-100.9,366.6-246.6,475.6l212.9,212.9H709z"/>
		<path class="st6" d="M362.5,477.3l-0.2-0.2C362.2,477.1,329,502.3,362.5,477.3z"/>
		<path class="st6" d="M361,475.8l-0.2-0.2C334.1,495.5,177.1,615,79,688.5h494.6L361,475.8z"/>
	</g>
</g>
</svg>
