<?xml version="1.0" standalone="no"?><!DOCTYPE svg PUBLIC "-//W3C//DTD SVG 1.1//EN" "http://www.w3.org/Graphics/SVG/1.1/DTD/svg11.dtd"><svg class="icon" width="200px" height="200.00px" viewBox="0 0 1024 1024" version="1.1" xmlns="http://www.w3.org/2000/svg"><path d="M589.9 797.3c27.1 0 48.9-21.8 48.9-48.9v-41C757 658.1 834 542.7 834.2 414.6 834.2 239.2 692 97 516.6 97S199.1 239.2 199.1 414.6c0 128.2 77.1 243.8 195.4 293.1v40.8c0 27.1 21.8 48.9 48.9 48.9" fill="#FFEE91" /><path d="M701.3 156.6c37.4 52.1 59.6 115.7 59.6 184.7-0.1 122.8-71 234-181 286.4-8.7 4.1-14.4 12.6-14.4 22.2v49.7c0 13.5-10.9 24.4-24.4 24.4H394.5v24.4c0 27 21.9 48.9 48.9 48.9H590c27 0 48.9-21.9 48.9-48.9v-41C757 658.1 834 542.7 834.2 414.6c0-106.4-52.5-200.4-132.9-258z" fill="#F9D151" /><path d="M516.2 235.5c-13.5 0.2-24.2 11.3-24 24.8v9.8c-32.4 7.5-57 36.7-57 71.3v24.4c0 40.2 33.1 73.3 73.3 73.3h16.3c14 0 24.4 10.5 24.4 24.4v24.4c0 14-10.5 24.4-24.4 24.4h-16.3c-14 0-24.4-10.5-24.4-24.4 0.2-13.5-10.6-24.6-24.1-24.8-13.5-0.2-24.6 10.6-24.8 24.1v0.7c0 34.6 24.6 63.8 57 71.3v9.8c-0.2 13.5 10.6 24.6 24.1 24.8 13.5 0.2 24.6-10.6 24.8-24.1v-10.5c32.4-7.5 57-36.7 57-71.3v-24.4c0-40.2-33.1-73.3-73.3-73.3h-16.3c-14 0-24.4-10.5-24.4-24.4v-24.4c0-14 10.5-24.4 24.4-24.4h16.3c14 0 24.4 10.5 24.4 24.4-0.2 13.5 10.6 24.6 24.1 24.8 13.5 0.2 24.6-10.6 24.8-24.1v-0.7c0-34.6-24.6-63.8-57-71.3v-9.8c0.2-13.5-10.6-24.6-24.1-24.8h-0.8z" fill="#FFFFFF" /><path d="M427.1 870.6c-13.5-0.2-24.6 10.6-24.8 24.1-0.2 13.5 10.6 24.6 24.1 24.8H467.8v8.1c0 13.5 10.9 24.4 24.4 24.4h48.9c13.5 0 24.4-10.9 24.4-24.4v-8.1h40.7c13.5 0.2 24.6-10.6 24.8-24.1 0.2-13.5-10.6-24.6-24.1-24.8H427.1zM516.6 72.6c-188.6 0-342 153.4-342 342 0 132 77.3 249.9 195.4 306.5v27.3c0 40.2 33.1 73.3 73.3 73.3h65.1c13.5 0.2 24.6-10.6 24.8-24.1 0.2-13.5-10.6-24.6-24.1-24.8h-65.8c-14 0-24.4-10.5-24.4-24.4v-40.8c0-9.9-5.9-18.8-15-22.6-109.3-45.4-180.4-152-180.4-270.4 0-162.2 130.9-293.1 293.1-293.1 162.2 0 293.1 130.9 293.1 293.1-0.1 118.3-71.2 224.8-180.4 270.3-9.1 3.8-15 12.7-15 22.6v41c0 14-10.5 24.4-24.4 24.4-13.5-0.2-24.6 10.6-24.8 24.1-0.2 13.5 10.6 24.6 24.1 24.8h0.7c40.2 0 73.3-33.1 73.3-73.3v-27.6c118-56.6 195.3-174.4 195.4-306.2 0-188.7-153.4-342.1-342-342.1z" fill="#444852" /></svg>