<svg width="44" height="43" viewBox="0 0 44 43" fill="none" xmlns="http://www.w3.org/2000/svg">
<path d="M29.7344 26.791C29.2598 26.791 28.875 27.167 28.875 27.6309V33.4258C28.875 35.7412 26.9474 37.625 24.5781 37.625H15.2996C14.8252 37.625 14.4406 38.0007 14.4402 38.4643L14.439 40.134L12.3879 38.1296C12.2551 37.8317 11.9512 37.625 11.5998 37.625H6.01562C3.64633 37.625 1.71875 35.7412 1.71875 33.4258V20.4922C1.71875 18.1767 3.64633 16.293 6.01562 16.293H14.6953C15.1699 16.293 15.5547 15.917 15.5547 15.4531C15.5547 14.9893 15.1699 14.6133 14.6953 14.6133H6.01562C2.69861 14.6133 0 17.2506 0 20.4922V33.4258C0 36.6674 2.69861 39.3047 6.01562 39.3047H11.1597L14.6892 42.754C14.8536 42.9147 15.0734 43 15.297 43C15.4076 43 15.5193 42.9791 15.6254 42.9362C15.9466 42.8063 16.156 42.5003 16.1562 42.1607L16.1583 39.3047H24.5781C27.8951 39.3047 30.5938 36.6674 30.5938 33.4258V27.6309C30.5938 27.167 30.2089 26.791 29.7344 26.791Z" fill="#FFFFFF"/>
<path d="M31.5094 0H29.3344C22.447 0 16.8438 5.47595 16.8438 12.2068C16.8438 18.9376 22.447 24.4135 29.3343 24.4135H31.5093C32.5843 24.4135 33.6483 24.2801 34.6796 24.0163L37.8925 27.1545C38.0569 27.315 38.2766 27.4003 38.5002 27.4003C38.6109 27.4003 38.7227 27.3794 38.829 27.3363C39.15 27.2063 39.3594 26.9001 39.3594 26.5605V21.7015C40.7197 20.6249 41.8497 19.2649 42.6427 17.7456C43.5434 16.0201 44 14.1566 44 12.2068C44 5.47595 38.3967 0 31.5094 0ZM37.9829 20.6211C37.7675 20.7798 37.6406 21.0282 37.6406 21.292V24.5338L35.5376 22.4797C35.374 22.3199 35.1545 22.2339 34.9301 22.2339C34.8459 22.2339 34.7608 22.246 34.6778 22.271C33.6548 22.5782 32.5889 22.7339 31.5094 22.7339H29.3344C23.3947 22.7339 18.5625 18.0115 18.5625 12.2068C18.5625 6.40213 23.3948 1.67969 29.3344 1.67969H31.5094C37.4491 1.67969 42.2812 6.40213 42.2812 12.2068C42.2812 15.5436 40.7146 18.6105 37.9829 20.6211Z" fill="#FFFFFF"/>
<path d="M34.2922 9.18972C34.1682 7.43151 32.7179 6.01419 30.9188 5.893C29.8989 5.82455 28.9255 6.16074 28.1805 6.84043C27.4458 7.51071 27.0244 8.45822 27.0244 9.44008C27.0244 9.90392 27.4092 10.2799 27.8838 10.2799C28.3583 10.2799 28.7432 9.90392 28.7432 9.44008C28.7432 8.91442 28.9599 8.42723 29.3533 8.06836C29.7464 7.70983 30.2601 7.53237 30.8007 7.56882C31.7484 7.63265 32.5123 8.37919 32.5776 9.30528C32.6436 10.2406 32.0157 11.0672 31.0846 11.2708C30.3303 11.4357 29.8035 12.0763 29.8035 12.8286V14.8463C29.8035 15.3102 30.1883 15.6862 30.6628 15.6862C31.1375 15.6862 31.5222 15.3102 31.5221 14.8463V12.8957C33.2538 12.4869 34.4156 10.9384 34.2922 9.18972Z" fill="#FFFFFF"/>
<path d="M31.2697 17.5747C31.1098 17.4185 30.8881 17.3286 30.6621 17.3286C30.4361 17.3286 30.2144 17.4185 30.0545 17.5747C29.8947 17.7309 29.8027 17.9476 29.8027 18.1685C29.8027 18.3902 29.8948 18.6069 30.0545 18.7631C30.2144 18.9193 30.4361 19.0083 30.6621 19.0083C30.8881 19.0083 31.1098 18.9193 31.2697 18.7631C31.4295 18.606 31.5215 18.3902 31.5215 18.1685C31.5215 17.9476 31.4294 17.7309 31.2697 17.5747Z" fill="#FFFFFF"/>
<path d="M23.6328 26.0352H5.5C5.02545 26.0352 4.64062 26.4112 4.64062 26.875C4.64062 27.3388 5.02545 27.7148 5.5 27.7148H23.6328C24.1074 27.7148 24.4922 27.3388 24.4922 26.875C24.4922 26.4112 24.1074 26.0352 23.6328 26.0352Z" fill="#FFFFFF"/>
<path d="M24.2403 30.9844C24.0805 30.8281 23.8588 30.7383 23.6328 30.7383C23.4068 30.7383 23.1851 30.8281 23.0252 30.9844C22.8653 31.1406 22.7734 31.3572 22.7734 31.5781C22.7734 31.799 22.8654 32.0157 23.0252 32.1719C23.1851 32.3281 23.4068 32.418 23.6328 32.418C23.8588 32.418 24.0805 32.3281 24.2403 32.1719C24.4002 32.0157 24.4922 31.7998 24.4922 31.5781C24.4922 31.3572 24.4001 31.1406 24.2403 30.9844Z" fill="#FFFFFF"/>
<path d="M20.2526 30.7383H5.5C5.02545 30.7383 4.64062 31.1143 4.64062 31.5781C4.64062 32.042 5.02545 32.418 5.5 32.418H20.2526C20.7273 32.418 21.112 32.042 21.112 31.5781C21.112 31.1143 20.7272 30.7383 20.2526 30.7383Z" fill="#FFFFFF"/>
<path d="M18.0469 21.332H5.5C5.02545 21.332 4.64062 21.708 4.64062 22.1719C4.64062 22.6357 5.02545 23.0117 5.5 23.0117H18.0469C18.5215 23.0117 18.9062 22.6357 18.9062 22.1719C18.9062 21.708 18.5214 21.332 18.0469 21.332Z" fill="#FFFFFF"/>
</svg>
