<svg width="98" height="98" viewBox="0 0 98 98" fill="none" xmlns="http://www.w3.org/2000/svg">
<path d="M19.0768 26.8408H59.3524C70.9444 26.8408 76.7404 32.6368 76.7404 44.2288C76.7404 55.8209 70.9444 61.6169 59.3524 61.6169H19.0768C7.48473 61.6169 1.68872 55.8209 1.68872 44.2288C1.68872 32.6368 7.48473 26.8408 19.0768 26.8408V26.8408Z" fill="white"/>
<path d="M59.3524 63.3056H19.0767C14.0173 63.3056 9.16503 61.2957 5.58745 57.7181C2.00987 54.1405 0 49.2883 0 44.2288C0 39.1694 2.00987 34.3171 5.58745 30.7395C9.16503 27.162 14.0173 25.1521 19.0767 25.1521H59.3524C64.4118 25.1521 69.2641 27.162 72.8417 30.7395C76.4192 34.3171 78.4291 39.1694 78.4291 44.2288C78.4291 49.2883 76.4192 54.1405 72.8417 57.7181C69.2641 61.2957 64.4118 63.3056 59.3524 63.3056V63.3056ZM19.0767 28.5295C14.9132 28.5297 10.9202 30.1839 7.97619 33.128C5.03218 36.0722 3.37827 40.0653 3.37827 44.2288C3.37827 48.3924 5.03218 52.3855 7.97619 55.3296C10.9202 58.2738 14.9132 59.9279 19.0767 59.9282H59.3524C61.4141 59.9283 63.4557 59.5223 65.3605 58.7334C67.2653 57.9444 68.9961 56.7881 70.454 55.3302C71.9119 53.8724 73.0684 52.1417 73.8574 50.2369C74.6464 48.3321 75.0525 46.2906 75.0525 44.2288C75.0525 42.1671 74.6464 40.1255 73.8574 38.2208C73.0684 36.316 71.9119 34.5853 70.454 33.1274C68.9961 31.6696 67.2653 30.5132 65.3605 29.7243C63.4557 28.9354 61.4141 28.5294 59.3524 28.5295H19.0767Z" fill="#6B6B6B"/>
<path d="M8.7926 44.2288C8.7926 47.2639 9.99828 50.1747 12.1444 52.3208C14.2905 54.4669 17.2013 55.6726 20.2364 55.6726C23.2715 55.6726 26.1823 54.4669 28.3284 52.3208C30.4745 50.1747 31.6802 47.2639 31.6802 44.2288C31.6802 41.1937 30.4745 38.283 28.3284 36.1368C26.1823 33.9907 23.2715 32.785 20.2364 32.785C17.2013 32.785 14.2905 33.9907 12.1444 36.1368C9.99828 38.283 8.7926 41.1937 8.7926 44.2288V44.2288Z" fill="#FE6C41"/>
</svg>
