<?xml version="1.0" encoding="utf-8"?>
<!-- Generator: Adobe Illustrator 17.0.0, SVG Export Plug-In . SVG Version: 6.00 Build 0)  -->
<!DOCTYPE svg PUBLIC "-//W3C//DTD SVG 1.1//EN" "http://www.w3.org/Graphics/SVG/1.1/DTD/svg11.dtd">
<svg version="1.1" id="图层_1" xmlns="http://www.w3.org/2000/svg" xmlns:xlink="http://www.w3.org/1999/xlink" x="0px" y="0px"
	 width="200px" height="200px" viewBox="0 0 200 200" enable-background="new 0 0 200 200" xml:space="preserve">
<path fill="#FF7190" d="M190.94,73.08c0-30.32-23.8-55-53-55c-14.44,0.087-28.189,6.189-37.94,16.84
	c-9.756-10.643-23.502-16.745-37.94-16.84c-29.22,0-53,24.66-53,55c0.01,0.893,0.07,1.784,0.18,2.67v0.75
	c0.137,6.026,1.438,11.968,3.83,17.5c0.08,0.23,0.16,0.45,0.26,0.65C29.48,133.42,91.65,178,94.29,180
	c3.299,2.532,7.894,2.512,11.17-0.05c2.26-1.76,55.29-39.93,76.34-76c0.703-1.105,1.347-2.247,1.93-3.42c0.16-0.33,0.31-0.65,0.49-1
	l0.07-0.15c0.069-0.128,0.145-0.252,0.23-0.37c1.171-2.264,2.193-4.603,3.06-7c2.028-4.951,3.129-10.232,3.25-15.58v-1
	C190.908,74.649,190.945,73.865,190.94,73.08z"/>
</svg>
