<svg width="36" height="34" viewBox="0 0 36 34" fill="none" xmlns="http://www.w3.org/2000/svg">
<path d="M6.37896 7.79357L14.3405 14.5941C14.7189 14.9063 15.6243 14.8103 16.04 14.4566C16.4379 14.118 16.7399 13.4933 16.2346 13.0634L8.21008 6.23553C7.70479 5.8056 6.88425 5.8056 6.37896 6.23553C5.87368 6.66546 5.87368 7.36364 6.37896 7.79357Z" fill="#A1AFFF"/>
<path d="M31.3254 34C30.1276 34 28.9297 33.5696 28.0182 32.7087L18.3181 23.5478C17.8583 23.1136 17.8422 22.4165 18.2859 21.9633L22.9927 17.1409C23.2145 16.9124 23.5291 16.7791 23.8558 16.7715C24.1865 16.7638 24.5011 16.8857 24.7351 17.1067L34.6327 26.4542C35.512 27.2846 36 28.3968 36 29.5776C36 30.7623 35.516 31.8707 34.6327 32.7011L33.7777 31.9012L34.6327 32.7087C33.7212 33.5696 32.5233 34 31.3254 34ZM20.851 22.7098L29.7283 31.0937C30.6075 31.924 32.0434 31.924 32.9226 31.0937C33.3461 30.6937 33.58 30.1566 33.58 29.5853C33.58 29.0139 33.3461 28.4768 32.9226 28.0769L23.9163 19.5711L20.851 22.7098ZM5.03252 8.00672C4.14923 8.00672 3.26594 7.69057 2.59239 7.05445L0.35392 4.9404C-0.117973 4.49473 -0.117973 3.77101 0.35392 3.32534L3.52004 0.3352C3.7459 0.121891 4.05647 0 4.37509 0C4.69776 0 5.00428 0.121891 5.23015 0.3352L7.46862 2.44925C8.8117 3.71768 8.8117 5.78602 7.46862 7.05445C6.79506 7.69057 5.91581 8.00672 5.03252 8.00672ZM2.91908 4.13287L4.3025 5.43939C4.70179 5.81649 5.35518 5.81649 5.75851 5.43939C6.1578 5.06229 6.1578 4.44522 5.75851 4.06431L4.37509 2.75779L2.91908 4.13287Z" fill="#A1AFFF"/>
<path d="M4.50098 27.3478C4.50098 27.639 4.55917 27.9273 4.67225 28.1963C4.78532 28.4653 4.95105 28.7098 5.15999 28.9157C5.36892 29.1216 5.61696 29.2849 5.88994 29.3964C6.16292 29.5078 6.4555 29.5652 6.75098 29.5652C7.04645 29.5652 7.33903 29.5078 7.61201 29.3964C7.885 29.2849 8.13303 29.1216 8.34197 28.9157C8.5509 28.7098 8.71663 28.4653 8.8297 28.1963C8.94278 27.9273 9.00097 27.639 9.00097 27.3478C9.00097 26.7597 8.76392 26.1957 8.34197 25.7798C7.92001 25.364 7.34771 25.1304 6.75098 25.1304C6.15424 25.1304 5.58194 25.364 5.15999 25.7798C4.73803 26.1957 4.50098 26.7597 4.50098 27.3478Z" fill="#4A5FE2"/>
<path d="M6.71106 34C4.99092 34 3.27077 33.3841 1.96267 32.1446C-0.657552 29.6695 -0.653552 25.6376 1.97067 23.1587C1.98267 23.1474 1.99467 23.136 2.00667 23.1285L15.8278 11.0855C15.6038 9.73271 15.6838 8.33835 16.0718 7.01956C16.5359 5.43247 17.4359 3.97386 18.6761 2.80622C21.2803 0.34624 25.1006 -0.587117 28.6489 0.368913C29.0569 0.478497 29.3729 0.784578 29.4809 1.17379C29.589 1.56301 29.4689 1.97489 29.1689 2.2583L27.3568 3.97008C26.1327 5.12639 26.1327 7.00822 27.3568 8.16452C27.9448 8.72 28.7329 9.02986 29.577 9.02986C30.421 9.02986 31.2091 8.72378 31.7971 8.16452L33.6093 6.45274C33.9093 6.16933 34.3454 6.05597 34.7574 6.15799C35.1694 6.26002 35.4934 6.55855 35.6095 6.94398C36.6215 10.292 35.6335 13.9045 33.0292 16.3645C31.7891 17.5359 30.249 18.3861 28.5689 18.8244C27.1688 19.191 25.6966 19.2666 24.2645 19.0549L11.5075 32.1031C11.4955 32.1144 11.4835 32.1257 11.4755 32.1371C10.1593 33.3803 8.4352 34 6.71106 34ZM3.6508 24.776C2.84674 25.5431 2.4027 26.5634 2.4027 27.6554C2.4027 28.7513 2.84674 29.7753 3.65881 30.5424C4.47087 31.3095 5.55496 31.729 6.71506 31.729C7.86715 31.729 8.94724 31.3095 9.76331 30.55L22.9484 17.0484C23.2404 16.7499 23.6805 16.6214 24.1005 16.7121C25.3606 16.988 26.6807 16.9615 27.9248 16.6365C29.2049 16.3002 30.385 15.6541 31.3291 14.7585C32.7812 13.3868 33.5733 11.5503 33.5973 9.6647L33.4893 9.76672C32.4452 10.753 31.0571 11.2933 29.573 11.2933C28.0888 11.2933 26.6967 10.7492 25.6566 9.76672C23.4965 7.72619 23.4965 4.40464 25.6566 2.36411L25.7646 2.26208C23.7685 2.28475 21.8243 3.03295 20.3722 4.40464C19.4241 5.30021 18.7401 6.41117 18.384 7.62038C18.04 8.79558 18.012 10.0464 18.304 11.2329C18.4 11.6297 18.264 12.0453 17.948 12.3212L3.6508 24.776Z" fill="#4A5FE2"/>
</svg>
